{"accessors":[{"bufferView":0,"componentType":5126,"count":2810,"max":[1.0,2.5,1.722944974899292],"min":[-1.0,-1.0,-4.1449480056762695],"normalized":false,"type":"VEC3"},{"bufferView":1,"componentType":5126,"count":2810,"max":[1.0,1.0,6.42561717540957e-05,1.0],"min":[-1.0,-1.0,-1.0,-1.0],"normalized":false,"type":"VEC4"},{"bufferView":2,"componentType":5126,"count":2810,"max":[1.0,1.0,1.0],"min":[-1.0,-1.0,-1.0],"normalized":false,"type":"VEC3"},{"bufferView":3,"componentType":5126,"count":2810,"max":[1.0,1.0],"min":[0.0,0.0],"normalized":false,"type":"VEC2"},{"bufferView":4,"componentType":5123,"count":11172,"max":[2809],"min":[0],"normalized":false,"type":"SCALAR"},{"bufferView":5,"componentType":5126,"count":3000,"max":[-0.5907610058784485,4.5,-3.692012071609497],"min":[-0.7107610106468201,2.5,-3.812011957168579],"normalized":false,"type":"VEC3"},{"bufferView":6,"componentType":5126,"count":3000,"max":[1.0,6.119970930740237e-05,0.9999807476997375,1.0],"min":[-0.9999799728393555,-6.112153641879559e-05,-0.9999807476997375,-1.0],"normalized":false,"type":"VEC4"},{"bufferView":7,"componentType":5126,"count":3000,"max":[0.9999807476997375,1.0,0.9999802708625793],"min":[-0.9999807476997375,-1.0,-0.9999799728393555],"normalized":false,"type":"VEC3"},{"bufferView":8,"componentType":5126,"count":3000,"max":[1.0,0.9899900555610657],"min":[0.0,0.0],"normalized":false,"type":"VEC2"},{"bufferView":9,"componentType":5123,"count":5988,"max":[2999],"min":[0],"normalized":false,"type":"SCALAR"},{"bufferView":10,"componentType":5126,"count":3000,"max":[-0.5907610058784485,4.5,-2.4395790100097656],"min":[-0.7107610106468201,2.5,-2.5595788955688477],"normalized":false,"type":"VEC3"},{"bufferView":11,"componentType":5126,"count":3000,"max":[1.0,9.161053458228707e-05,0.9999807476997375,1.0],"min":[-0.9999799728393555,-6.111711263656616e-05,-0.9999807476997375,-1.0],"normalized":false,"type":"VEC4"},{"bufferView":12,"componentType":5126,"count":3000,"max":[0.9999807476997375,1.0,0.9999802708625793],"min":[-0.9999807476997375,-1.0,-0.9999799728393555],"normalized":false,"type":"VEC3"},{"bufferView":13,"componentType":5126,"count":3000,"max":[1.0,0.9899900555610657],"min":[0.0,0.0],"normalized":false,"type":"VEC2"},{"bufferView":14,"componentType":5123,"count":5988,"max":[2999],"min":[0],"normalized":false,"type":"SCALAR"},{"bufferView":15,"componentType":5126,"count":3000,"max":[-0.5907610058784485,4.5,-0.7344139814376831],"min":[-0.7107610106468201,2.5,-0.8544139862060547],"normalized":false,"type":"VEC3"},{"bufferView":16,"componentType":5126,"count":3000,"max":[1.0,6.115861469879746e-05,0.9999807476997375,1.0],"min":[-0.9999799728393555,-6.113061681389809e-05,-0.9999807476997375,-1.0],"normalized":false,"type":"VEC4"},{"bufferView":17,"componentType":5126,"count":3000,"max":[0.9999807476997375,1.0,0.9999802708625793],"min":[-0.9999807476997375,-1.0,-0.9999799728393555],"normalized":false,"type":"VEC3"},{"bufferView":18,"componentType":5126,"count":3000,"max":[1.0,0.9899900555610657],"min":[0.0,0.0],"normalized":false,"type":"VEC2"},{"bufferView":19,"componentType":5123,"count":5988,"max":[2999],"min":[0],"normalized":false,"type":"SCALAR"},{"bufferView":20,"componentType":5126,"count":3000,"max":[0.03912198543548584,3.424578905105591,-1.7187329530715942],"min":[-1.3406440019607544,3.155895948410034,-3.319334030151367],"normalized":false,"type":"VEC3"},{"bufferView":21,"componentType":5126,"count":3000,"max":[0.7653519511222839,0.9972442984580994,0.6485354900360107,1.0],"min":[-0.7653353214263916,-0.9972432851791382,-0.648614227771759,-1.0],"normalized":false,"type":"VEC4"},{"bufferView":22,"componentType":5126,"count":3000,"max":[0.7649685144424438,0.9972274899482727,0.7614548206329346],"min":[-0.7650822401046753,-0.9972233772277832,-0.7614704370498657],"normalized":false,"type":"VEC3"},{"bufferView":23,"componentType":5126,"count":3000,"max":[1.0,0.9899900555610657],"min":[0.0,0.0],"normalized":false,"type":"VEC2"},{"bufferView":24,"componentType":5123,"count":5988,"max":[2999],"min":[0],"normalized":false,"type":"SCALAR"},{"bufferView":25,"componentType":5126,"count":3000,"max":[-0.17983198165893555,3.8591508865356445,-1.9776099920272827],"min":[-1.121690034866333,3.6411349773406982,-3.0604569911956787],"normalized":false,"type":"VEC3"},{"bufferView":26,"componentType":5126,"count":3000,"max":[0.7654014825820923,0.9973040819168091,0.6485705375671387,1.0],"min":[-0.7655216455459595,-0.9972246289253235,-0.6486932039260864,-1.0],"normalized":false,"type":"VEC4"},{"bufferView":27,"componentType":5126,"count":3000,"max":[0.7649959325790405,0.99722820520401,0.7614548206329346],"min":[-0.7650576829910278,-0.9972240924835205,-0.7614704370498657],"normalized":false,"type":"VEC3"},{"bufferView":28,"componentType":5126,"count":3000,"max":[1.0,0.9899900555610657],"min":[0.0,0.0],"normalized":false,"type":"VEC2"},{"bufferView":29,"componentType":5123,"count":5988,"max":[2999],"min":[0],"normalized":false,"type":"SCALAR"},{"bufferView":30,"componentType":5126,"count":3000,"max":[-0.4357300102710724,4.297840118408203,-2.2830259799957275],"min":[-0.8657919764518738,4.1554741859436035,-2.7550408840179443],"normalized":false,"type":"VEC3"},{"bufferView":31,"componentType":5126,"count":3000,"max":[0.7589162588119507,0.9990572929382324,0.6543062925338745,1.0],"min":[-0.7586288452148438,-0.9991071224212646,-0.6541111469268799,-1.0],"normalized":false,"type":"VEC4"},{"bufferView":32,"componentType":5126,"count":3000,"max":[0.7580861449241638,0.9990620017051697,0.7569562792778015],"min":[-0.7581846714019775,-0.9990614056587219,-0.7569841742515564],"normalized":false,"type":"VEC3"},{"bufferView":33,"componentType":5126,"count":3000,"max":[1.0,0.9899900555610657],"min":[0.0,0.0],"normalized":false,"type":"VEC2"},{"bufferView":34,"componentType":5123,"count":5988,"max":[2999],"min":[0],"normalized":false,"type":"SCALAR"}],"asset":{"generator":"Godot Engine v4.7.1.stable.steam@a13da4feb8d8aefc283c3763d33a2f170a18d541","version":"2.0"},"bufferViews":[{"buffer":0,"byteLength":33720,"byteStride":12,"target":34962},{"buffer":0,"byteLength":44960,"byteOffset":33720,"byteStride":16,"target":34962},{"buffer":0,"byteLength":33720,"byteOffset":78680,"byteStride":12,"target":34962},{"buffer":0,"byteLength":22480,"byteOffset":112400,"byteStride":8,"target":34962},{"buffer":0,"byteLength":22344,"byteOffset":134880,"target":34963},{"buffer":0,"byteLength":36000,"byteOffset":157224,"byteStride":12,"target":34962},{"buffer":0,"byteLength":48000,"byteOffset":193224,"byteStride":16,"target":34962},{"buffer":0,"byteLength":36000,"byteOffset":241224,"byteStride":12,"target":34962},{"buffer":0,"byteLength":24000,"byteOffset":277224,"byteStride":8,"target":34962},{"buffer":0,"byteLength":11976,"byteOffset":301224,"target":34963},{"buffer":0,"byteLength":36000,"byteOffset":313200,"byteStride":12,"target":34962},{"buffer":0,"byteLength":48000,"byteOffset":349200,"byteStride":16,"target":34962},{"buffer":0,"byteLength":36000,"byteOffset":397200,"byteStride":12,"target":34962},{"buffer":0,"byteLength":24000,"byteOffset":433200,"byteStride":8,"target":34962},{"buffer":0,"byteLength":11976,"byteOffset":457200,"target":34963},{"buffer":0,"byteLength":36000,"byteOffset":469176,"byteStride":12,"target":34962},{"buffer":0,"byteLength":48000,"byteOffset":505176,"byteStride":16,"target":34962},{"buffer":0,"byteLength":36000,"byteOffset":553176,"byteStride":12,"target":34962},{"buffer":0,"byteLength":24000,"byteOffset":589176,"byteStride":8,"target":34962},{"buffer":0,"byteLength":11976,"byteOffset":613176,"target":34963},{"buffer":0,"byteLength":36000,"byteOffset":625152,"byteStride":12,"target":34962},{"buffer":0,"byteLength":48000,"byteOffset":661152,"byteStride":16,"target":34962},{"buffer":0,"byteLength":36000,"byteOffset":709152,"byteStride":12,"target":34962},{"buffer":0,"byteLength":24000,"byteOffset":745152,"byteStride":8,"target":34962},{"buffer":0,"byteLength":11976,"byteOffset":769152,"target":34963},{"buffer":0,"byteLength":36000,"byteOffset":781128,"byteStride":12,"target":34962},{"buffer":0,"byteLength":48000,"byteOffset":817128,"byteStride":16,"target":34962},{"buffer":0,"byteLength":36000,"byteOffset":865128,"byteStride":12,"target":34962},{"buffer":0,"byteLength":24000,"byteOffset":901128,"byteStride":8,"target":34962},{"buffer":0,"byteLength":11976,"byteOffset":925128,"target":34963},{"buffer":0,"byteLength":36000,"byteOffset":937104,"byteStride":12,"target":34962},{"buffer":0,"byteLength":48000,"byteOffset":973104,"byteStride":16,"target":34962},{"buffer":0,"byteLength":36000,"byteOffset":1021104,"byteStride":12,"target":34962},{"buffer":0,"byteLength":24000,"byteOffset":1057104,"byteStride":8,"target":34962},{"buffer":0,"byteLength":11976,"byteOffset":1081104,"target":34963}],"buffers":[{"byteLength":1093080,"uri":"Vox-Caster_Array0.bin"}],"extensions":{"OMI_physics_shape":{"shapes":[{"box":{"size":[2.0198936462402344,3.5313491821289063,5.866996765136719]},"type":"box"}]}},"extensionsUsed":["GODOT_single_root","OMI_physics_body","OMI_physics_shape"],"materials":[{"name":"Material","pbrMetallicRoughness":{"baseColorFactor":[0.6038272976875305,0.6038272976875305,0.6038272976875305,1.0],"metallicFactor":0.5,"roughnessFactor":1.0}}],"meshes":[{"primitives":[{"attributes":{"NORMAL":2,"POSITION":0,"TANGENT":1,"TEXCOORD_0":3},"indices":4,"material":0,"mode":4},{"attributes":{"NORMAL":7,"POSITION":5,"TANGENT":6,"TEXCOORD_0":8},"indices":9,"material":0,"mode":4},{"attributes":{"NORMAL":12,"POSITION":10,"TANGENT":11,"TEXCOORD_0":13},"indices":14,"material":0,"mode":4},{"attributes":{"NORMAL":17,"POSITION":15,"TANGENT":16,"TEXCOORD_0":18},"indices":19,"material":0,"mode":4},{"attributes":{"NORMAL":22,"POSITION":20,"TANGENT":21,"TEXCOORD_0":23},"indices":24,"material":0,"mode":4},{"attributes":{"NORMAL":27,"POSITION":25,"TANGENT":26,"TEXCOORD_0":28},"indices":29,"material":0,"mode":4},{"attributes":{"NORMAL":32,"POSITION":30,"TANGENT":31,"TEXCOORD_0":33},"indices":34,"material":0,"mode":4}]}],"nodes":[{"children":[1],"name":"Node3D"},{"children":[2],"mesh":0,"name":"MeshInstance3D","scale":[0.5,0.5,0.5]},{"children":[3,4],"extensions":{"OMI_physics_body":{"motion":{"type":"static"}}},"name":"StaticBody3D"},{"extensions":{"OMI_physics_body":{"collider":{"shape":0}}},"name":"CollisionShape3D","translation":[-0.005012609995901585,0.7403850555419922,-1.2023513317108154]},{"children":[5,6],"name":"VoxCasterPopup"},{"name":"ColorRect"},{"children":[7],"name":"PanelContainer"},{"children":[8,9,10,11,12,14,15],"name":"VBoxContainer"},{"name":"Title"},{"name":"Subtitle"},{"name":"TurnLabel"},{"name":"HSeparator"},{"children":[13],"name":"ScrollContainer"},{"name":"TransmissionContainer"},{"name":"HSeparator2"},{"children":[16],"name":"ButtonRow"},{"name":"CloseBtn"}],"scene":0,"scenes":[{"nodes":[0]}]}