# Blender 5.1.2
# www.blender.org
mtllib Backup room.mtl
o Cube.019
v -13.000000 -1.450026 5.000000
v -13.000000 0.841678 5.000000
v -13.000000 -1.450026 -5.000000
v -13.000000 0.841678 -5.000000
v -7.000000 -1.450026 5.000000
v -7.000000 0.841678 5.000000
v -7.000000 -1.450026 -5.000000
v -7.000000 0.841678 -5.000000
v -10.000000 -1.450026 -5.000000
v -10.000000 0.841678 -5.000000
v -10.000000 -1.450026 5.000000
v -10.000000 0.841678 5.000000
v -11.500000 -1.450026 -5.000000
v -11.500000 0.841678 5.000000
v -11.500000 0.841678 -5.000000
v -11.500000 -1.450026 5.000000
v -12.250000 -1.450026 -5.000000
v -12.250000 0.841678 5.000000
v -12.250000 0.841678 -5.000000
v -12.250000 -1.450026 5.000000
v -11.875000 0.841678 -5.000000
v -11.875000 -1.450026 5.000000
v -11.875000 -1.450026 -5.000000
v -11.875000 0.841678 5.000000
v -12.062500 -1.450026 -5.000000
v -12.062500 0.841678 5.000000
v -12.062500 0.841678 -5.000000
v -12.062500 -1.450026 5.000000
v -13.000000 -1.450026 0.000000
v -13.000000 0.841678 0.000000
v -7.000000 -1.450026 0.000000
v -7.000000 0.841678 0.000000
v -12.250000 0.841678 0.000000
v -11.968750 0.841678 -5.000000
v -11.968750 -1.450026 5.000000
v -11.968750 -1.450026 -5.000000
v -11.968750 0.841678 5.000000
v -8.500000 0.841678 -5.000000
v -8.500000 -1.450026 5.000000
v -8.500000 -1.450026 -5.000000
v -8.500000 0.841678 5.000000
v -7.750000 0.841678 -5.000000
v -7.750000 -1.450026 5.000000
v -7.750000 0.841678 0.000000
v -7.750000 -1.450026 -5.000000
v -7.750000 0.841678 5.000000
v -8.125000 -1.450026 -5.000000
v -8.125000 0.841678 5.000000
v -8.125000 0.841678 -5.000000
v -8.125000 -1.450026 5.000000
v -7.937500 0.841678 -5.000000
v -7.937500 -1.450026 5.000000
v -7.937500 -1.450026 -5.000000
v -7.937500 0.841678 5.000000
v -8.031250 -1.450026 -5.000000
v -8.031250 0.841678 5.000000
v -8.031250 0.841678 -5.000000
v -8.031250 -1.450026 5.000000
v -13.000000 0.841678 -2.500000
v -7.000000 -1.450026 -2.500000
v -13.000000 -1.450026 -2.500000
v -7.000000 0.841678 -2.500000
v -12.250000 0.841678 -2.500000
v -12.062500 0.841678 -2.500000
v -11.968750 -1.450026 -2.500000
v -11.968750 0.841678 -2.500000
v -7.750000 0.841678 -2.500000
v -7.937500 0.841678 -2.500000
v -7.937500 -1.450026 -2.500000
v -8.031250 -1.450026 -2.500000
v -8.031250 0.841678 -2.500000
v -13.000000 0.841678 -3.750000
v -7.000000 -1.450026 -3.750000
v -13.000000 -1.450026 -3.750000
v -7.000000 0.841678 -3.750000
v -12.250000 0.841678 -3.750000
v -12.062500 0.841678 -3.750000
v -11.968750 -1.450026 -3.750000
v -11.968750 0.841678 -3.750000
v -7.750000 0.841678 -3.750000
v -7.937500 0.841678 -3.750000
v -7.937500 -1.450026 -3.750000
v -8.031250 -1.450026 -3.750000
v -8.031250 0.841678 -3.750000
v -13.000000 0.841678 -4.375000
v -7.000000 -1.450026 -4.375000
v -13.000000 -1.450026 -4.375000
v -7.000000 0.841678 -4.375000
v -10.000000 0.841678 -4.375000
v -10.000000 -1.450026 -4.375000
v -11.500000 -1.450026 -4.375000
v -11.500000 0.841678 -4.375000
v -12.250000 0.841678 -4.375000
v -11.875000 0.841678 -4.375000
v -11.875000 -1.450026 -4.375000
v -12.062500 0.841678 -4.375000
v -11.968750 -1.450026 -4.375000
v -11.968750 0.841678 -4.375000
v -8.500000 -1.450026 -4.375000
v -8.500000 0.841678 -4.375000
v -7.750000 0.841678 -4.375000
v -8.125000 -1.450026 -4.375000
v -8.125000 0.841678 -4.375000
v -7.937500 0.841678 -4.375000
v -8.031250 -1.450026 -4.375000
v -8.031250 0.841678 -4.375000
v -13.000000 -1.450026 -4.062500
v -7.000000 0.841678 -4.062500
v -10.000000 0.841678 -4.062500
v -10.000000 -1.450026 -4.062500
v -11.500000 -1.450026 -4.062500
v -11.500000 0.841678 -4.062500
v -12.250000 0.841678 -4.062500
v -11.875000 0.841678 -4.062500
v -11.875000 -1.450026 -4.062500
v -12.062500 0.841678 -4.062500
v -11.968750 -1.450026 -4.062500
v -11.968750 0.841678 -4.062500
v -8.500000 -1.450026 -4.062500
v -8.500000 0.841678 -4.062500
v -7.750000 0.841678 -4.062500
v -8.125000 -1.450026 -4.062500
v -8.125000 0.841678 -4.062500
v -7.937500 0.841678 -4.062500
v -7.937500 -1.450026 -4.062500
v -8.031250 -1.450026 -4.062500
v -8.031250 0.841678 -4.062500
v -13.000000 0.841678 -4.062500
v -7.000000 -1.450026 -4.062500
v -13.000000 -1.450026 -3.906250
v -7.000000 0.841678 -3.906250
v -12.250000 0.841678 -3.906250
v -12.062500 0.841678 -3.906250
v -11.968750 -1.450026 -3.906250
v -11.968750 0.841678 -3.906250
v -7.750000 0.841678 -3.906250
v -7.937500 0.841678 -3.906250
v -7.937500 -1.450026 -3.906250
v -8.031250 -1.450026 -3.906250
v -8.031250 0.841678 -3.906250
v -13.000000 0.841678 -3.906250
v -7.000000 -1.450026 -3.906250
v -13.000000 0.841678 -3.984375
v -7.000000 -1.450026 -3.984375
v -13.000000 -1.450026 -3.984375
v -7.000000 0.841678 -3.984375
v -10.000000 0.841678 -3.984375
v -10.000000 -1.450026 -3.984375
v -11.500000 -1.450026 -3.984375
v -11.500000 0.841678 -3.984375
v -12.250000 0.841678 -3.984375
v -11.875000 0.841678 -3.984375
v -11.875000 -1.450026 -3.984375
v -12.062500 0.841678 -3.984375
v -11.968750 -1.450026 -3.984375
v -11.968750 0.841678 -3.984375
v -8.500000 -1.450026 -3.984375
v -8.500000 0.841678 -3.984375
v -7.750000 0.841678 -3.984375
v -8.125000 -1.450026 -3.984375
v -8.125000 0.841678 -3.984375
v -7.937500 0.841678 -3.984375
v -7.937500 -1.450026 -3.984375
v -8.031250 -1.450026 -3.984375
v -8.031250 0.841678 -3.984375
v -13.000000 -1.450026 -1.250000
v -7.000000 0.841678 -1.250000
v -10.000000 0.841678 -1.250000
v -11.500000 0.841678 -1.250000
v -12.250000 0.841678 -1.250000
v -11.875000 0.841678 -1.250000
v -12.062500 0.841678 -1.250000
v -11.968750 0.841678 -1.250000
v -8.500000 0.841678 -1.250000
v -7.750000 0.841678 -1.250000
v -8.125000 0.841678 -1.250000
v -7.937500 0.841678 -1.250000
v -8.031250 0.841678 -1.250000
v -13.000000 0.841678 -1.250000
v -7.000000 -1.450026 -1.250000
v -13.000000 0.841678 -1.875000
v -7.000000 -1.450026 -1.875000
v -13.000000 -1.450026 -1.875000
v -7.000000 0.841678 -1.875000
v -10.000000 0.841678 -1.875000
v -11.500000 0.841678 -1.875000
v -12.250000 0.841678 -1.875000
v -11.875000 0.841678 -1.875000
v -12.062500 0.841678 -1.875000
v -11.968750 0.841678 -1.875000
v -8.500000 0.841678 -1.875000
v -7.750000 0.841678 -1.875000
v -8.125000 0.841678 -1.875000
v -7.937500 0.841678 -1.875000
v -8.031250 0.841678 -1.875000
v -13.000000 0.841678 -2.187500
v -7.000000 -1.450026 -2.187500
v -13.000000 -1.450026 -2.187500
v -7.000000 0.841678 -2.187500
v -12.250000 0.841678 -2.187500
v -12.062500 0.841678 -2.187500
v -11.968750 -1.450026 -2.187500
v -11.968750 0.841678 -2.187500
v -7.750000 0.841678 -2.187500
v -7.937500 0.841678 -2.187500
v -7.937500 -1.450026 -2.187500
v -8.031250 -1.450026 -2.187500
v -8.031250 0.841678 -2.187500
v -13.000000 -1.450026 -2.031250
v -7.000000 0.841678 -2.031250
v -10.000000 0.841678 -2.031250
v -10.000000 -1.450026 -2.031250
v -11.500000 -1.450026 -2.031250
v -11.500000 0.841678 -2.031250
v -12.250000 0.841678 -2.031250
v -11.875000 0.841678 -2.031250
v -11.875000 -1.450026 -2.031250
v -12.062500 0.841678 -2.031250
v -11.968750 -1.450026 -2.031250
v -11.968750 0.841678 -2.031250
v -8.500000 -1.450026 -2.031250
v -8.500000 0.841678 -2.031250
v -7.750000 0.841678 -2.031250
v -8.125000 -1.450026 -2.031250
v -8.125000 0.841678 -2.031250
v -7.937500 0.841678 -2.031250
v -7.937500 -1.450026 -2.031250
v -8.031250 -1.450026 -2.031250
v -8.031250 0.841678 -2.031250
v -13.000000 0.841678 -2.031250
v -7.000000 -1.450026 -2.031250
v -13.000000 -1.450026 2.500000
v -7.000000 0.841678 2.500000
v -13.000000 0.841678 2.500000
v -7.000000 -1.450026 2.500000
v -7.750000 0.841678 2.500000
v -7.750000 -1.450026 2.500000
v -7.937500 -1.450026 2.500000
v -8.031250 -1.450026 2.500000
v -13.000000 -1.450026 3.750000
v -7.000000 0.841678 3.750000
v -7.750000 0.841678 3.750000
v -7.750000 -1.450026 3.750000
v -7.937500 -1.450026 3.750000
v -8.031250 -1.450026 3.750000
v -13.000000 0.841678 3.750000
v -7.000000 -1.450026 3.750000
v -13.000000 -1.450026 4.375000
v -7.000000 0.841678 4.375000
v -7.750000 0.841678 4.375000
v -13.000000 0.841678 4.375000
v -7.000000 -1.450026 4.375000
v -13.000000 0.841678 4.062500
v -7.000000 -1.450026 4.062500
v -13.000000 -1.450026 4.062500
v -7.000000 0.841678 4.062500
v -7.750000 0.841678 4.062500
v -7.750000 -1.450026 4.062500
v -7.937500 -1.450026 4.062500
v -8.031250 -1.450026 4.062500
v -13.000000 -1.450026 4.218750
v -7.000000 0.841678 4.218750
v -10.000000 -1.450026 4.218750
v -11.500000 -1.450026 4.218750
v -11.875000 -1.450026 4.218750
v -11.968750 -1.450026 4.218750
v -8.500000 -1.450026 4.218750
v -7.750000 0.841678 4.218750
v -7.750000 -1.450026 4.218750
v -8.125000 -1.450026 4.218750
v -7.937500 -1.450026 4.218750
v -8.031250 -1.450026 4.218750
v -13.000000 0.841678 4.218750
v -7.000000 -1.450026 4.218750
v -13.000000 0.841678 4.140625
v -7.000000 -1.450026 4.140625
v -13.000000 -1.450026 4.140625
v -7.000000 0.841678 4.140625
v -10.000000 0.841678 4.140625
v -10.000000 -1.450026 4.140625
v -11.500000 -1.450026 4.140625
v -11.500000 0.841678 4.140625
v -11.875000 0.841678 4.140625
v -11.875000 -1.450026 4.140625
v -11.968750 0.841678 4.140625
v -11.968750 -1.450026 4.140625
v -8.500000 0.841678 4.140625
v -8.500000 -1.450026 4.140625
v -7.750000 0.841678 4.140625
v -7.750000 -1.450026 4.140625
v -8.125000 -1.450026 4.140625
v -8.125000 0.841678 4.140625
v -7.937500 -1.450026 4.140625
v -8.031250 -1.450026 4.140625
v -13.000000 0.841678 4.101562
v -7.000000 -1.450026 4.101562
v -13.000000 -1.450026 4.101562
v -7.000000 0.841678 4.101562
v -10.000000 0.841678 4.101562
v -10.000000 -1.450026 4.101562
v -11.500000 -1.450026 4.101562
v -11.500000 0.841678 4.101562
v -11.875000 0.841678 4.101562
v -11.875000 -1.450026 4.101562
v -11.968750 0.841678 4.101562
v -11.968750 -1.450026 4.101562
v -8.500000 0.841678 4.101562
v -8.500000 -1.450026 4.101562
v -7.750000 0.841678 4.101562
v -7.750000 -1.450026 4.101562
v -8.125000 -1.450026 4.101562
v -8.125000 0.841678 4.101562
v -7.937500 -1.450026 4.101562
v -8.031250 -1.450026 4.101562
v -8.078125 0.841678 5.000000
v -8.078125 -1.450026 5.000000
v -8.078125 0.841678 -1.250000
v -8.078125 0.841678 -1.875000
v -8.078125 -1.450026 -2.031250
v -8.078125 0.841678 -2.031250
v -8.078125 -1.450026 2.500000
v -8.078125 -1.450026 3.750000
v -8.078125 -1.450026 4.062500
v -8.078125 -1.450026 4.218750
v -8.078125 -1.450026 4.140625
v -8.078125 -1.450026 4.101562
v -13.000000 0.841678 1.250000
v -7.000000 -1.450026 1.250000
v -13.000000 -1.450026 1.250000
v -7.000000 0.841678 1.250000
v -13.000000 -1.450026 1.875000
v -7.000000 0.841678 1.875000
v -13.000000 0.841678 1.875000
v -7.000000 -1.450026 1.875000
v -13.000000 -1.450026 2.187500
v -7.000000 0.841678 2.187500
v -7.750000 0.841678 2.187500
v -8.078125 0.841678 2.187500
v -13.000000 0.841678 2.187500
v -7.000000 -1.450026 2.187500
v -13.000000 0.841678 2.031250
v -7.000000 -1.450026 2.031250
v -13.000000 -1.450026 2.031250
v -7.000000 0.841678 2.031250
v -13.000000 -1.450026 2.109375
v -7.000000 0.841678 2.109375
v -13.000000 0.841678 2.109375
v -7.000000 -1.450026 2.109375
v -13.000000 -1.450026 2.148438
v -7.000000 0.841678 2.148438
v -7.750000 0.841678 2.148438
v -13.000000 0.841678 2.148438
v -7.000000 -1.450026 2.148438
v -12.156250 -1.450026 -5.000000
v -12.156250 0.841678 5.000000
v -12.156250 0.841678 -5.000000
v -12.156250 -1.450026 5.000000
v -12.156250 0.841678 -2.500000
v -12.156250 0.841678 -3.750000
v -12.156250 0.841678 -4.375000
v -12.156250 0.841678 -4.062500
v -12.156250 0.841678 -3.906250
v -12.156250 0.841678 -3.984375
v -12.156250 0.841678 -1.250000
v -12.156250 0.841678 -1.875000
v -12.156250 0.841678 -2.187500
v -12.156250 0.841678 -2.031250
v -12.109375 0.841678 -5.000000
v -12.109375 -1.450026 5.000000
v -12.109375 0.841678 -2.500000
v -12.109375 0.841678 -3.750000
v -12.109375 0.841678 -4.375000
v -12.109375 0.841678 -4.062500
v -12.109375 0.841678 -3.906250
v -12.109375 0.841678 -3.984375
v -12.109375 0.841678 -1.250000
v -12.109375 0.841678 -1.875000
v -12.109375 0.841678 -2.187500
v -12.109375 0.841678 -2.031250
v -12.109375 -1.450026 -5.000000
v -12.109375 0.841678 5.000000
v -12.015625 -1.450026 -5.000000
v -12.015625 0.841678 5.000000
v -12.015625 0.841678 -5.000000
v -12.015625 -1.450026 5.000000
v -12.015625 -1.450026 -2.500000
v -12.015625 0.841678 -2.500000
v -12.015625 0.841678 -3.750000
v -12.015625 -1.450026 -3.750000
v -12.015625 -1.450026 -4.375000
v -12.015625 0.841678 -4.375000
v -12.015625 -1.450026 -4.062500
v -12.015625 0.841678 -4.062500
v -12.015625 -1.450026 -3.906250
v -12.015625 0.841678 -3.906250
v -12.015625 0.841678 -3.984375
v -12.015625 -1.450026 -3.984375
v -12.015625 0.841678 -1.250000
v -12.015625 0.841678 -1.875000
v -12.015625 -1.450026 -2.187500
v -12.015625 0.841678 -2.187500
v -12.015625 -1.450026 -2.031250
v -12.015625 0.841678 -2.031250
v -12.015625 -1.450026 2.500000
v -12.015625 0.841678 2.500000
v -12.015625 -1.450026 3.750000
v -12.015625 0.841678 4.062500
v -12.015625 -1.450026 4.062500
v -12.015625 -1.450026 4.218750
v -12.015625 -1.450026 4.140625
v -12.015625 0.841678 4.140625
v -12.015625 0.841678 4.101562
v -12.015625 -1.450026 4.101562
v -12.015625 0.841678 2.187500
v -12.015625 -1.450026 2.148438
v -13.000000 -1.450026 2.343750
v -7.000000 0.841678 2.343750
v -7.750000 0.841678 2.343750
v -7.937500 -1.450026 2.343750
v -8.031250 -1.450026 2.343750
v -8.078125 0.841678 2.343750
v -8.078125 -1.450026 2.343750
v -13.000000 0.841678 2.343750
v -7.000000 -1.450026 2.343750
v -12.015625 0.841678 2.343750
v -12.015625 -1.450026 2.343750
vn -1.0000 -0.0000 -0.0000
vn -0.0000 -0.0000 -1.0000
vn 1.0000 -0.0000 -0.0000
vn -0.0000 -0.0000 1.0000
vn -0.0000 -1.0000 -0.0000
vn -0.0000 1.0000 -0.0000
vn 0.0491 -0.9918 -0.1179
vt 0.375000 0.234375
vt 0.625000 0.234375
vt 0.625000 0.250000
vt 0.375000 0.250000
vt 0.375000 0.468750
vt 0.625000 0.468750
vt 0.625000 0.500000
vt 0.375000 0.500000
vt 0.375000 0.734375
vt 0.625000 0.734375
vt 0.625000 0.750000
vt 0.375000 0.750000
vt 0.375000 0.968750
vt 0.625000 0.968750
vt 0.625000 1.000000
vt 0.375000 1.000000
vt 0.375000 0.812500
vt 0.625000 0.812500
vt 0.625000 0.875000
vt 0.375000 0.875000
vt 0.375000 0.296875
vt 0.625000 0.296875
vt 0.625000 0.312500
vt 0.375000 0.312500
vt 0.187500 0.730469
vt 0.250000 0.730469
vt 0.250000 0.750000
vt 0.187500 0.750000
vt 0.625000 0.937500
vt 0.375000 0.937500
vt 0.171875 0.730469
vt 0.171875 0.750000
vt 0.625000 0.281250
vt 0.375000 0.281250
vt 0.375000 0.964844
vt 0.625000 0.964844
vt 0.625000 0.953125
vt 0.375000 0.953125
vt 0.375000 0.292969
vt 0.625000 0.292969
vt 0.375000 0.287109
vt 0.625000 0.287109
vt 0.625000 0.289062
vt 0.375000 0.289062
vt 0.375000 0.958984
vt 0.625000 0.958984
vt 0.625000 0.960938
vt 0.375000 0.960938
vt 0.843750 0.593750
vt 0.875000 0.593750
vt 0.875000 0.625000
vt 0.843750 0.625000
vt 0.375000 0.593750
vt 0.625000 0.593750
vt 0.625000 0.625000
vt 0.375000 0.625000
vt 0.375000 0.093750
vt 0.625000 0.093750
vt 0.625000 0.125000
vt 0.375000 0.125000
vt 0.625000 0.957031
vt 0.375000 0.957031
vt 0.375000 0.291016
vt 0.625000 0.291016
vt 0.166016 0.730469
vt 0.166016 0.750000
vt 0.164062 0.750000
vt 0.162109 0.750000
vt 0.160156 0.750000
vt 0.156250 0.750000
vt 0.125000 0.750000
vt 0.125000 0.734375
vt 0.125000 0.730469
vt 0.125000 0.728516
vt 0.125000 0.727539
vt 0.125000 0.726562
vt 0.125000 0.718750
vt 0.125000 0.687500
vt 0.125000 0.683594
vt 0.125000 0.679688
vt 0.125000 0.678711
vt 0.125000 0.677734
vt 0.125000 0.675781
vt 0.125000 0.671875
vt 0.125000 0.656250
vt 0.125000 0.625000
vt 0.125000 0.593750
vt 0.125000 0.578125
vt 0.125000 0.574219
vt 0.125000 0.570312
vt 0.125000 0.562500
vt 0.125000 0.531250
vt 0.125000 0.527344
vt 0.125000 0.525391
vt 0.125000 0.523438
vt 0.125000 0.515625
vt 0.125000 0.500000
vt 0.156250 0.500000
vt 0.160156 0.500000
vt 0.162109 0.500000
vt 0.164062 0.500000
vt 0.166016 0.500000
vt 0.166016 0.515625
vt 0.166016 0.523438
vt 0.166016 0.525391
vt 0.166016 0.527344
vt 0.166016 0.531250
vt 0.166016 0.562500
vt 0.166016 0.570312
vt 0.166016 0.574219
vt 0.166016 0.678711
vt 0.166016 0.683594
vt 0.166016 0.687500
vt 0.166016 0.718750
vt 0.166016 0.726562
vt 0.166016 0.727539
vt 0.166016 0.728516
vt 0.375000 0.796875
vt 0.625000 0.796875
vt 0.375000 0.375000
vt 0.625000 0.375000
vt 0.625000 0.437500
vt 0.375000 0.437500
vt 0.656250 0.734375
vt 0.656250 0.750000
vt 0.625000 0.781250
vt 0.375000 0.781250
vt 0.656250 0.593750
vt 0.656250 0.625000
vt 0.312500 0.730469
vt 0.312500 0.750000
vt 0.375000 0.460938
vt 0.625000 0.460938
vt 0.625000 0.453125
vt 0.375000 0.453125
vt 0.335938 0.730469
vt 0.343750 0.730469
vt 0.343750 0.750000
vt 0.335938 0.750000
vt 0.375000 0.794922
vt 0.625000 0.794922
vt 0.625000 0.789062
vt 0.375000 0.789062
vt 0.375000 0.457031
vt 0.625000 0.457031
vt 0.328125 0.730469
vt 0.328125 0.750000
vt 0.625000 0.792969
vt 0.375000 0.792969
vt 0.664062 0.531250
vt 0.667969 0.531250
vt 0.667969 0.562500
vt 0.664062 0.562500
vt 0.332031 0.531250
vt 0.335938 0.531250
vt 0.335938 0.562500
vt 0.332031 0.562500
vt 0.656250 0.531250
vt 0.656250 0.562500
vt 0.625000 0.531250
vt 0.625000 0.562500
vt 0.167969 0.531250
vt 0.167969 0.562500
vt 0.375000 0.531250
vt 0.375000 0.562500
vt 0.843750 0.531250
vt 0.875000 0.531250
vt 0.875000 0.562500
vt 0.843750 0.562500
vt 0.839844 0.531250
vt 0.839844 0.562500
vt 0.833984 0.531250
vt 0.835938 0.531250
vt 0.835938 0.562500
vt 0.833984 0.562500
vt 0.375000 0.179688
vt 0.625000 0.179688
vt 0.625000 0.187500
vt 0.375000 0.187500
vt 0.833984 0.527344
vt 0.835938 0.527344
vt 0.839844 0.527344
vt 0.843750 0.527344
vt 0.875000 0.527344
vt 0.375000 0.527344
vt 0.625000 0.527344
vt 0.167969 0.527344
vt 0.656250 0.527344
vt 0.664062 0.527344
vt 0.332031 0.527344
vt 0.335938 0.527344
vt 0.667969 0.527344
vt 0.625000 0.218750
vt 0.375000 0.218750
vt 0.664062 0.500000
vt 0.667969 0.500000
vt 0.667969 0.515625
vt 0.664062 0.515625
vt 0.656250 0.500000
vt 0.656250 0.515625
vt 0.671875 0.500000
vt 0.671875 0.515625
vt 0.625000 0.515625
vt 0.687500 0.500000
vt 0.687500 0.515625
vt 0.828125 0.500000
vt 0.832031 0.500000
vt 0.832031 0.515625
vt 0.828125 0.515625
vt 0.375000 0.515625
vt 0.843750 0.500000
vt 0.875000 0.500000
vt 0.875000 0.515625
vt 0.843750 0.515625
vt 0.750000 0.500000
vt 0.750000 0.515625
vt 0.812500 0.500000
vt 0.812500 0.515625
vt 0.839844 0.500000
vt 0.839844 0.515625
vt 0.833984 0.500000
vt 0.835938 0.500000
vt 0.835938 0.515625
vt 0.833984 0.515625
vt 0.375000 0.226562
vt 0.625000 0.226562
vt 0.375000 0.224609
vt 0.625000 0.224609
vt 0.667969 0.523438
vt 0.664062 0.523438
vt 0.328125 0.515625
vt 0.332031 0.515625
vt 0.332031 0.523438
vt 0.328125 0.523438
vt 0.335938 0.523438
vt 0.656250 0.523438
vt 0.671875 0.523438
vt 0.312500 0.515625
vt 0.312500 0.523438
vt 0.625000 0.523438
vt 0.687500 0.523438
vt 0.250000 0.515625
vt 0.250000 0.523438
vt 0.832031 0.523438
vt 0.828125 0.523438
vt 0.167969 0.515625
vt 0.167969 0.523438
vt 0.375000 0.523438
vt 0.875000 0.523438
vt 0.843750 0.523438
vt 0.750000 0.523438
vt 0.187500 0.515625
vt 0.187500 0.523438
vt 0.171875 0.515625
vt 0.171875 0.523438
vt 0.812500 0.523438
vt 0.839844 0.523438
vt 0.835938 0.523438
vt 0.833984 0.523438
vt 0.625000 0.222656
vt 0.375000 0.222656
vt 0.664062 0.525391
vt 0.667969 0.525391
vt 0.332031 0.525391
vt 0.335938 0.525391
vt 0.656250 0.525391
vt 0.625000 0.525391
vt 0.167969 0.525391
vt 0.375000 0.525391
vt 0.843750 0.525391
vt 0.875000 0.525391
vt 0.839844 0.525391
vt 0.833984 0.525391
vt 0.835938 0.525391
vt 0.171875 0.525391
vt 0.828125 0.525391
vt 0.812500 0.525391
vt 0.750000 0.525391
vt 0.187500 0.525391
vt 0.250000 0.525391
vt 0.687500 0.525391
vt 0.832031 0.525391
vt 0.312500 0.525391
vt 0.671875 0.525391
vt 0.328125 0.525391
vt 0.625000 0.156250
vt 0.375000 0.156250
vt 0.664062 0.578125
vt 0.667969 0.578125
vt 0.667969 0.593750
vt 0.664062 0.593750
vt 0.656250 0.578125
vt 0.669922 0.578125
vt 0.671875 0.578125
vt 0.671875 0.593750
vt 0.669922 0.593750
vt 0.625000 0.578125
vt 0.687500 0.578125
vt 0.687500 0.593750
vt 0.828125 0.578125
vt 0.832031 0.578125
vt 0.832031 0.593750
vt 0.828125 0.593750
vt 0.375000 0.578125
vt 0.843750 0.578125
vt 0.875000 0.578125
vt 0.750000 0.578125
vt 0.750000 0.593750
vt 0.812500 0.578125
vt 0.812500 0.593750
vt 0.839844 0.578125
vt 0.839844 0.593750
vt 0.833984 0.578125
vt 0.835938 0.578125
vt 0.835938 0.593750
vt 0.833984 0.593750
vt 0.833984 0.574219
vt 0.835938 0.574219
vt 0.812500 0.574219
vt 0.828125 0.574219
vt 0.839844 0.574219
vt 0.843750 0.574219
vt 0.750000 0.574219
vt 0.687500 0.574219
vt 0.875000 0.574219
vt 0.375000 0.574219
vt 0.625000 0.574219
vt 0.167969 0.730469
vt 0.167969 0.750000
vt 0.832031 0.574219
vt 0.671875 0.574219
vt 0.656250 0.574219
vt 0.669922 0.574219
vt 0.664062 0.574219
vt 0.330078 0.730469
vt 0.332031 0.730469
vt 0.332031 0.750000
vt 0.330078 0.750000
vt 0.667969 0.574219
vt 0.625000 0.171875
vt 0.375000 0.171875
vt 0.667969 0.570312
vt 0.664062 0.570312
vt 0.335938 0.570312
vt 0.332031 0.570312
vt 0.656250 0.570312
vt 0.625000 0.570312
vt 0.167969 0.570312
vt 0.375000 0.570312
vt 0.875000 0.570312
vt 0.843750 0.570312
vt 0.839844 0.570312
vt 0.835938 0.570312
vt 0.833984 0.570312
vt 0.375000 0.175781
vt 0.625000 0.175781
vt 0.335938 0.574219
vt 0.332031 0.574219
vt 0.167969 0.574219
vt 0.330078 0.683594
vt 0.332031 0.683594
vt 0.332031 0.687500
vt 0.330078 0.687500
vt 0.335938 0.683594
vt 0.335938 0.687500
vt 0.343750 0.687500
vt 0.625000 0.683594
vt 0.656250 0.683594
vt 0.656250 0.687500
vt 0.625000 0.687500
vt 0.375000 0.031250
vt 0.625000 0.031250
vt 0.625000 0.062500
vt 0.375000 0.062500
vt 0.375000 0.683594
vt 0.375000 0.687500
vt 0.375000 0.023438
vt 0.625000 0.023438
vt 0.332031 0.718750
vt 0.330078 0.718750
vt 0.335938 0.718750
vt 0.343750 0.718750
vt 0.656250 0.718750
vt 0.625000 0.718750
vt 0.375000 0.718750
vt 0.375000 0.000000
vt 0.625000 0.000000
vt 0.625000 0.015625
vt 0.375000 0.015625
vt 0.375000 0.730469
vt 0.625000 0.730469
vt 0.625000 0.726562
vt 0.375000 0.726562
vt 0.656250 0.726562
vt 0.343750 0.726562
vt 0.335938 0.726562
vt 0.332031 0.726562
vt 0.330078 0.726562
vt 0.375000 0.022461
vt 0.625000 0.022461
vt 0.625000 0.019531
vt 0.375000 0.019531
vt 0.375000 0.728516
vt 0.625000 0.728516
vt 0.187500 0.728516
vt 0.250000 0.728516
vt 0.171875 0.728516
vt 0.167969 0.728516
vt 0.312500 0.728516
vt 0.656250 0.728516
vt 0.656250 0.730469
vt 0.335938 0.728516
vt 0.343750 0.728516
vt 0.328125 0.728516
vt 0.332031 0.728516
vt 0.330078 0.728516
vt 0.330078 0.727539
vt 0.332031 0.727539
vt 0.335938 0.727539
vt 0.312500 0.727539
vt 0.328125 0.727539
vt 0.343750 0.727539
vt 0.625000 0.727539
vt 0.656250 0.727539
vt 0.250000 0.727539
vt 0.671875 0.727539
vt 0.687500 0.727539
vt 0.687500 0.728516
vt 0.671875 0.728516
vt 0.167969 0.727539
vt 0.828125 0.727539
vt 0.832031 0.727539
vt 0.832031 0.728516
vt 0.828125 0.728516
vt 0.171875 0.727539
vt 0.812500 0.727539
vt 0.812500 0.728516
vt 0.750000 0.727539
vt 0.750000 0.728516
vt 0.187500 0.727539
vt 0.375000 0.727539
vt 0.625000 0.021484
vt 0.375000 0.021484
vt 0.669922 0.683594
vt 0.833984 0.728516
vt 0.833984 0.727539
vt 0.833984 0.726562
vt 0.833984 0.687500
vt 0.833984 0.683594
vt 0.833984 0.679688
vt 0.669922 0.679688
vt 0.656250 0.679688
vt 0.656250 0.678711
vt 0.625000 0.678711
vt 0.625000 0.677734
vt 0.625000 0.675781
vt 0.625000 0.671875
vt 0.625000 0.656250
vt 0.837891 0.593750
vt 0.875000 0.656250
vt 0.875000 0.671875
vt 0.875000 0.675781
vt 0.875000 0.677734
vt 0.875000 0.678711
vt 0.875000 0.679688
vt 0.875000 0.683594
vt 0.875000 0.687500
vt 0.875000 0.718750
vt 0.875000 0.726562
vt 0.875000 0.727539
vt 0.875000 0.728516
vt 0.875000 0.730469
vt 0.875000 0.734375
vt 0.875000 0.750000
vt 0.843750 0.750000
vt 0.839844 0.750000
vt 0.837891 0.750000
vt 0.835938 0.750000
vt 0.833984 0.750000
vt 0.832031 0.750000
vt 0.828125 0.750000
vt 0.812500 0.750000
vt 0.750000 0.750000
vt 0.687500 0.750000
vt 0.671875 0.750000
vt 0.669922 0.750000
vt 0.667969 0.750000
vt 0.664062 0.750000
vt 0.375000 0.656250
vt 0.375000 0.078125
vt 0.625000 0.078125
vt 0.375000 0.074219
vt 0.625000 0.074219
vt 0.375000 0.066406
vt 0.625000 0.066406
vt 0.625000 0.070312
vt 0.375000 0.070312
vt 0.375000 0.678711
vt 0.625000 0.679688
vt 0.375000 0.679688
vt 0.375000 0.671875
vt 0.375000 0.675781
vt 0.375000 0.072266
vt 0.625000 0.072266
vt 0.375000 0.071289
vt 0.625000 0.071289
vt 0.375000 0.677734
vt 0.837891 0.570312
vt 0.837891 0.574219
vt 0.837891 0.562500
vt 0.837891 0.578125
vt 0.837891 0.523438
vt 0.837891 0.525391
vt 0.837891 0.527344
vt 0.837891 0.515625
vt 0.837891 0.500000
vt 0.837891 0.531250
vt 0.625000 0.285156
vt 0.375000 0.285156
vt 0.375000 0.962891
vt 0.625000 0.962891
vt 0.832031 0.570312
vt 0.832031 0.562500
vt 0.832031 0.527344
vt 0.832031 0.531250
vt 0.343750 0.500000
vt 0.171875 0.574219
vt 0.187500 0.574219
vt 0.250000 0.574219
vt 0.312500 0.574219
vt 0.328125 0.574219
vt 0.330078 0.574219
vt 0.167969 0.500000
vt 0.171875 0.500000
vt 0.250000 0.500000
vt 0.312500 0.500000
vt 0.328125 0.500000
vt 0.332031 0.500000
vt 0.335938 0.500000
s 0
f 87/1/1 85/2/1 4/3/1 3/4/1
f 45/5/2 42/6/2 8/7/2 7/8/2
f 252/9/3 249/10/3 6/11/3 5/12/3
f 20/13/4 18/14/4 2/15/4 1/16/4
f 39/17/4 41/18/4 12/19/4 11/20/4
f 23/21/2 21/22/2 15/23/2 13/24/2
f 264/25/5 263/26/5 11/27/5 16/28/5
f 11/20/4 12/19/4 14/29/4 16/30/4
f 265/31/5 264/25/5 16/28/5 22/32/5
f 3/4/2 4/3/2 19/33/2 17/34/2
f 357/35/4 355/36/4 18/14/4 20/13/4
f 16/30/4 14/29/4 24/37/4 22/38/4
f 36/39/2 34/40/2 21/22/2 23/21/2
f 380/41/2 368/42/2 27/43/2 25/44/2
f 385/45/4 383/46/4 26/47/4 28/48/4
f 170/49/6 179/50/6 30/51/6 33/52/6
f 180/53/3 167/54/3 32/55/3 31/56/3
f 329/57/1 327/58/1 30/59/1 29/60/1
f 22/38/4 24/37/4 37/61/4 35/62/4
f 382/63/2 384/64/2 34/40/2 36/39/2
f 409/65/5 385/66/5 28/67/5 369/68/5 357/69/5 20/70/5 1/71/5 248/72/5 261/73/5 277/74/5 297/75/5 255/76/5 240/77/5 232/78/5 416/79/5 335/80/5 349/81/5 345/82/5 343/83/5 331/84/5 329/85/5 29/86/5 166/87/5 183/88/5 209/89/5 198/90/5 61/91/5 74/92/5 130/93/5 145/94/5 107/95/5 87/96/5 3/97/5 17/98/5 354/99/5 380/100/5 25/101/5 382/102/5 390/103/5 392/104/5 397/105/5 394/106/5 389/107/5 386/108/5 400/109/5 402/110/5 415/111/5 426/112/5 404/113/5 406/114/5 408/115/5 413/116/5 410/117/5
f 50/118/4 48/119/4 41/18/4 39/17/4
f 9/120/2 10/121/2 38/122/2 40/123/2
f 249/10/6 250/124/6 46/125/6 6/11/6
f 5/12/4 6/11/4 46/126/4 43/127/4
f 167/54/6 175/128/6 44/129/6 32/55/6
f 263/26/5 267/130/5 39/131/5 11/27/5
f 53/132/2 51/133/2 42/6/2 45/5/2
f 40/123/2 38/122/2 49/134/2 47/135/2
f 271/136/5 269/137/5 43/138/5 52/139/5
f 316/140/4 315/141/4 48/119/4 50/118/4
f 43/127/4 46/126/4 54/142/4 52/143/4
f 55/144/2 57/145/2 51/133/2 53/132/2
f 267/130/5 270/146/5 50/147/5 39/131/5
f 47/135/2 49/134/2 57/145/2 55/144/2
f 52/143/4 54/142/4 56/148/4 58/149/4
f 81/150/6 84/151/6 71/152/6 68/153/6
f 83/154/5 82/155/5 69/156/5 70/157/5
f 80/158/6 81/150/6 68/153/6 67/159/6
f 75/160/6 80/158/6 67/159/6 62/161/6
f 389/107/5 78/162/5 65/163/5 386/108/5
f 73/164/3 75/160/3 62/161/3 60/165/3
f 76/166/6 72/167/6 59/168/6 63/169/6
f 359/170/6 76/166/6 63/169/6 358/171/6
f 388/172/6 77/173/6 64/174/6 387/175/6
f 198/176/1 196/177/1 59/178/1 61/179/1
f 395/180/6 133/181/6 77/173/6 388/172/6
f 362/182/6 132/183/6 76/166/6 359/170/6
f 132/183/6 141/184/6 72/167/6 76/166/6
f 142/185/3 131/186/3 75/160/3 73/164/3
f 394/106/5 134/187/5 78/162/5 389/107/5
f 131/186/6 136/188/6 80/158/6 75/160/6
f 136/188/6 137/189/6 81/150/6 80/158/6
f 139/190/5 138/191/5 82/155/5 83/154/5
f 137/189/6 140/192/6 84/151/6 81/150/6
f 61/179/1 59/178/1 72/193/1 74/194/1
f 51/195/6 57/196/6 106/197/6 104/198/6
f 42/199/6 51/195/6 104/198/6 101/200/6
f 57/196/6 49/201/6 103/202/6 106/197/6
f 8/7/6 42/199/6 101/200/6 88/203/6
f 49/201/6 38/204/6 100/205/6 103/202/6
f 21/206/6 34/207/6 98/208/6 94/209/6
f 7/8/3 8/7/3 88/203/3 86/210/3
f 19/211/6 4/212/6 85/213/6 93/214/6
f 38/204/6 10/215/6 89/216/6 100/205/6
f 10/215/6 15/217/6 92/218/6 89/216/6
f 356/219/6 19/211/6 93/214/6 360/220/6
f 15/217/6 21/206/6 94/209/6 92/218/6
f 384/221/6 27/222/6 96/223/6 391/224/6
f 107/225/1 128/226/1 85/2/1 87/1/1
f 145/227/1 143/228/1 128/226/1 107/225/1
f 104/198/6 106/197/6 127/229/6 124/230/6
f 102/231/5 105/232/5 126/233/5 122/234/5
f 105/232/5 125/235/5 126/233/5
f 101/200/6 104/198/6 124/230/6 121/236/6
f 106/197/6 103/202/6 123/237/6 127/229/6
f 99/238/5 102/231/5 122/234/5 119/239/5
f 88/203/6 101/200/6 121/236/6 108/240/6
f 103/202/6 100/205/6 120/241/6 123/237/6
f 90/242/5 99/238/5 119/239/5 110/243/5
f 94/209/6 98/208/6 118/244/6 114/245/6
f 390/103/5 97/246/5 117/247/5 392/104/5
f 86/210/3 88/203/3 108/240/3 129/248/3
f 93/214/6 85/213/6 128/249/6 113/250/6
f 100/205/6 89/216/6 109/251/6 120/241/6
f 91/252/5 90/242/5 110/243/5 111/253/5
f 95/254/5 91/252/5 111/253/5 115/255/5
f 89/216/6 92/218/6 112/256/6 109/251/6
f 360/220/6 93/214/6 113/250/6 361/257/6
f 92/218/6 94/209/6 114/245/6 112/256/6
f 97/246/5 95/254/5 115/255/5 117/247/5
f 391/224/6 96/223/6 116/258/6 393/259/6
f 74/194/1 72/193/1 141/260/1 130/261/1
f 162/262/6 165/263/6 140/192/6 137/189/6
f 164/264/5 163/265/5 138/191/5 139/190/5
f 159/266/6 162/262/6 137/189/6 136/188/6
f 146/267/6 159/266/6 136/188/6 131/186/6
f 397/105/5 155/268/5 134/187/5 394/106/5
f 144/269/3 146/267/3 131/186/3 142/185/3
f 151/270/6 143/271/6 141/184/6 132/183/6
f 363/272/6 151/270/6 132/183/6 362/182/6
f 396/273/6 154/274/6 133/181/6 395/180/6
f 393/259/6 116/258/6 154/274/6 396/273/6
f 117/247/5 115/255/5 153/275/5 155/268/5
f 112/256/6 114/245/6 152/276/6 150/277/6
f 361/257/6 113/250/6 151/270/6 363/272/6
f 109/251/6 112/256/6 150/277/6 147/278/6
f 115/255/5 111/253/5 149/279/5 153/275/5
f 111/253/5 110/243/5 148/280/5 149/279/5
f 120/241/6 109/251/6 147/278/6 158/281/6
f 113/250/6 128/249/6 143/271/6 151/270/6
f 129/248/3 108/240/3 146/267/3 144/269/3
f 392/104/5 117/247/5 155/268/5 397/105/5
f 114/245/6 118/244/6 156/282/6 152/276/6
f 110/243/5 119/239/5 157/283/5 148/280/5
f 123/237/6 120/241/6 158/281/6 161/284/6
f 108/240/6 121/236/6 159/266/6 146/267/6
f 119/239/5 122/234/5 160/285/5 157/283/5
f 127/229/6 123/237/6 161/284/6 165/263/6
f 121/236/6 124/230/6 162/262/6 159/266/6
f 126/233/5 125/235/5 163/265/5 164/264/5
f 122/234/5 126/233/5 164/264/5 160/285/5
f 124/230/6 127/229/6 165/263/6 162/262/6
f 130/261/1 141/260/1 143/228/1 145/227/1
f 29/60/1 30/59/1 179/286/1 166/287/1
f 194/288/6 195/289/6 178/290/6 177/291/6
f 192/292/6 194/288/6 177/291/6 175/128/6
f 318/293/6 193/294/6 176/295/6 317/296/6
f 184/297/6 192/292/6 175/128/6 167/54/6
f 193/294/6 191/298/6 174/299/6 176/295/6
f 188/300/6 190/301/6 173/302/6 171/303/6
f 182/304/3 184/297/3 167/54/3 180/53/3
f 187/305/6 181/306/6 179/50/6 170/49/6
f 191/298/6 185/307/6 168/308/6 174/299/6
f 185/307/6 186/309/6 169/310/6 168/308/6
f 365/311/6 187/305/6 170/49/6 364/312/6
f 186/309/6 188/300/6 171/303/6 169/310/6
f 399/313/6 189/314/6 172/315/6 398/316/6
f 403/317/6 218/318/6 189/314/6 399/313/6
f 214/319/6 216/320/6 188/300/6 186/309/6
f 367/321/6 215/322/6 187/305/6 365/311/6
f 211/323/6 214/319/6 186/309/6 185/307/6
f 222/324/6 211/323/6 185/307/6 191/298/6
f 215/322/6 230/325/6 181/306/6 187/305/6
f 231/326/3 210/327/3 184/297/3 182/304/3
f 409/65/5 266/328/5 35/329/5 385/66/5
f 216/320/6 220/330/6 190/301/6 188/300/6
f 225/331/6 222/324/6 191/298/6 193/294/6
f 210/327/6 223/332/6 192/292/6 184/297/6
f 320/333/6 225/331/6 193/294/6 318/293/6
f 223/332/6 226/334/6 194/288/6 192/292/6
f 324/335/5 272/336/5 58/337/5 316/338/5
f 226/334/6 229/339/6 195/289/6 194/288/6
f 166/287/1 179/286/1 181/340/1 183/341/1
f 68/153/6 71/152/6 208/342/6 205/343/6
f 70/157/5 69/156/5 206/344/5 207/345/5
f 67/159/6 68/153/6 205/343/6 204/346/6
f 62/161/6 67/159/6 204/346/6 199/347/6
f 386/108/5 65/163/5 202/348/5 400/109/5
f 60/165/3 62/161/3 199/347/3 197/349/3
f 63/169/6 59/168/6 196/350/6 200/351/6
f 358/171/6 63/169/6 200/351/6 366/352/6
f 387/175/6 64/174/6 201/353/6 401/354/6
f 209/355/1 230/356/1 196/177/1 198/176/1
f 183/341/1 181/340/1 230/356/1 209/355/1
f 205/343/6 208/342/6 229/339/6 226/334/6
f 207/345/5 206/344/5 227/357/5 228/358/5
f 204/346/6 205/343/6 226/334/6 223/332/6
f 199/347/6 204/346/6 223/332/6 210/327/6
f 400/109/5 202/348/5 219/359/5 402/110/5
f 197/349/3 199/347/3 210/327/3 231/326/3
f 200/351/6 196/350/6 230/325/6 215/322/6
f 366/352/6 200/351/6 215/322/6 367/321/6
f 401/354/6 201/353/6 218/318/6 403/317/6
f 422/360/5 420/361/5 239/362/5 321/363/5
f 420/361/5 419/364/5 238/365/5 239/362/5
f 419/364/5 237/366/5 238/365/5
f 417/367/6 418/368/6 236/369/6 233/370/6
f 240/371/1 246/372/1 234/373/1 232/374/1
f 424/375/3 417/367/3 233/370/3 235/376/3
f 255/377/1 253/378/1 246/372/1 240/371/1
f 321/363/5 239/362/5 245/379/5 322/380/5
f 239/362/5 238/365/5 244/381/5 245/379/5
f 238/365/5 237/366/5 243/382/5 244/381/5
f 233/370/6 236/369/6 242/383/6 241/384/6
f 235/376/3 233/370/3 241/384/3 247/385/3
f 1/386/1 2/387/1 251/388/1 248/389/1
f 324/335/5 316/338/5 50/147/5 270/146/5
f 274/390/3 262/391/3 249/10/3 252/9/3
f 247/385/3 241/384/3 256/392/3 254/393/3
f 241/384/6 242/383/6 257/394/6 256/392/6
f 244/381/5 243/382/5 258/395/5 259/396/5
f 245/379/5 244/381/5 259/396/5 260/397/5
f 322/380/5 245/379/5 260/397/5 323/398/5
f 297/399/1 295/400/1 253/378/1 255/377/1
f 248/389/1 251/388/1 273/401/1 261/402/1
f 276/403/3 278/404/3 262/391/3 274/390/3
f 281/405/5 280/406/5 263/26/5 264/25/5
f 284/407/5 281/405/5 264/25/5 265/31/5
f 286/408/5 284/407/5 265/31/5 266/328/5
f 410/117/5 286/408/5 266/328/5 409/65/5
f 280/406/5 288/409/5 267/130/5 263/26/5
f 278/404/6 289/410/6 268/411/6 262/391/6
f 293/412/5 290/413/5 269/137/5 271/136/5
f 288/409/5 291/414/5 270/146/5 267/130/5
f 294/415/5 293/412/5 271/136/5 272/336/5
f 325/416/5 294/415/5 272/336/5 324/335/5
f 326/417/5 314/418/5 294/415/5 325/416/5
f 314/418/5 313/419/5 293/412/5 294/415/5
f 308/420/5 311/421/5 291/414/5 288/409/5
f 313/419/5 310/422/5 290/413/5 293/412/5
f 298/423/6 309/424/6 289/410/6 278/404/6
f 300/425/5 308/420/5 288/409/5 280/406/5
f 312/426/6 307/427/6 287/428/6 292/429/6
f 413/116/5 306/430/5 286/408/5 410/117/5
f 303/431/6 305/432/6 285/433/6 283/434/6
f 306/430/5 304/435/5 284/407/5 286/408/5
f 302/436/6 303/431/6 283/434/6 282/437/6
f 299/438/6 302/436/6 282/437/6 279/439/6
f 304/435/5 301/440/5 281/405/5 284/407/5
f 301/440/5 300/425/5 280/406/5 281/405/5
f 307/427/6 299/438/6 279/439/6 287/428/6
f 296/441/3 298/423/3 278/404/3 276/403/3
f 261/402/1 273/401/1 275/442/1 277/443/1
f 254/393/3 256/392/3 298/423/3 296/441/3
f 256/392/6 257/394/6 309/424/6 298/423/6
f 259/396/5 258/395/5 310/422/5 313/419/5
f 260/397/5 259/396/5 313/419/5 314/418/5
f 323/398/5 260/397/5 314/418/5 326/417/5
f 277/443/1 275/442/1 295/400/1 297/399/1
f 418/368/6 421/444/6 312/426/6 292/429/6 287/428/6 279/439/6 282/437/6 283/434/6 285/433/6 411/445/6 412/446/6 407/447/6 405/448/6 425/449/6 414/450/6 338/451/6 337/452/6 351/453/6 350/454/6 346/455/6 344/456/6 332/457/6 330/458/6 32/55/6 44/129/6 175/128/6 177/291/6 178/290/6 317/296/6 176/295/6 174/299/6 168/308/6 169/310/6 171/303/6 173/302/6 398/316/6 172/315/6 376/459/6 364/312/6 170/49/6 33/52/6 30/51/6 327/460/6 333/461/6 341/462/6 347/463/6 352/464/6 339/465/6 423/466/6 234/467/6 246/468/6 253/469/6 295/470/6 275/471/6 273/472/6 251/473/6 2/474/6 18/475/6 355/476/6 381/477/6 26/478/6 383/479/6 37/480/6 24/481/6 14/482/6 12/483/6 41/484/6 48/485/6 315/486/6 56/487/6 54/488/6 46/125/6 250/124/6 249/10/6 262/391/6 268/411/6 289/410/6 309/424/6 257/394/6 242/383/6 236/369/6
f 311/421/5 326/417/5 325/416/5 291/414/5
f 291/414/5 325/416/5 324/335/5 270/146/5
f 272/336/5 271/136/5 52/139/5 58/337/5
f 229/339/6 320/333/6 318/293/6 195/289/6
f 195/289/6 318/293/6 317/296/6 178/290/6
f 58/149/4 56/148/4 315/141/4 316/140/4
f 31/56/3 32/55/3 330/458/3 328/489/3
f 331/490/1 333/491/1 327/58/1 329/57/1
f 343/492/1 341/493/1 333/491/1 331/490/1
f 416/494/1 423/495/1 339/496/1 335/497/1
f 353/498/3 350/454/3 336/499/3 340/500/3
f 350/454/6 351/453/6 337/452/6 336/499/6
f 334/501/3 332/457/3 344/456/3 342/502/3
f 345/503/1 347/504/1 341/493/1 343/492/1
f 349/505/1 352/506/1 347/504/1 345/503/1
f 342/502/3 344/456/3 346/455/3 348/507/3
f 335/497/1 339/496/1 352/506/1 349/505/1
f 348/507/3 346/455/3 350/454/3 353/498/3
f 378/508/6 366/352/6 367/321/6 379/509/6
f 370/510/6 358/171/6 366/352/6 378/508/6
f 379/509/6 367/321/6 365/311/6 377/511/6
f 377/511/6 365/311/6 364/312/6 376/459/6
f 373/512/6 361/257/6 363/272/6 375/513/6
f 375/513/6 363/272/6 362/182/6 374/514/6
f 372/515/6 360/220/6 361/257/6 373/512/6
f 368/516/6 356/219/6 360/220/6 372/515/6
f 374/514/6 362/182/6 359/170/6 371/517/6
f 371/517/6 359/170/6 358/171/6 370/510/6
f 266/328/5 265/31/5 22/32/5 35/329/5
f 17/34/2 19/33/2 356/518/2 354/519/2
f 369/520/4 381/521/4 355/36/4 357/35/4
f 28/48/4 26/47/4 381/521/4 369/520/4
f 77/173/6 371/517/6 370/510/6 64/174/6
f 133/181/6 374/514/6 371/517/6 77/173/6
f 27/222/6 368/516/6 372/515/6 96/223/6
f 96/223/6 372/515/6 373/512/6 116/258/6
f 154/274/6 375/513/6 374/514/6 133/181/6
f 116/258/6 373/512/6 375/513/6 154/274/6
f 189/314/6 377/511/6 376/459/6 172/315/6
f 218/318/6 379/509/6 377/511/6 189/314/6
f 64/174/6 370/510/6 378/508/6 201/353/6
f 201/353/6 378/508/6 379/509/6 218/318/6
f 354/519/2 356/518/2 368/42/2 380/41/2
f 305/432/6 412/446/6 411/445/6 285/433/6
f 203/522/6 401/354/6 403/317/6 220/330/6
f 66/523/6 387/175/6 401/354/6 203/522/6
f 220/330/6 403/317/6 399/313/6 190/301/6
f 190/301/6 399/313/6 398/316/6 173/302/6
f 118/244/6 393/259/6 396/273/6 156/282/6
f 156/282/6 396/273/6 395/180/6 135/524/6
f 98/208/6 391/224/6 393/259/6 118/244/6
f 34/207/6 384/221/6 391/224/6 98/208/6
f 135/524/6 395/180/6 388/172/6 79/525/6
f 79/525/6 388/172/6 387/175/6 66/523/6
f 25/44/2 27/43/2 384/64/2 382/63/2
f 35/62/4 37/61/4 383/46/4 385/45/4
f 232/374/1 234/373/1 423/495/1 416/494/1
f 340/500/3 336/499/3 417/367/3 424/375/3
f 45/526/7 7/8/7 86/210/7 129/248/7 144/269/7 142/185/7 73/164/7 60/165/7 197/349/7 231/326/7 182/304/7 180/53/7 31/56/7 328/489/7 330/458/7 332/457/7 334/501/7 342/502/7 348/507/7 353/498/7 340/500/7 424/375/7 235/376/7 247/385/7 254/393/7 296/441/7 276/403/7 274/390/7 252/9/7 5/12/7 43/138/7 269/137/7 290/413/7 310/422/7 258/395/7 243/382/7 237/366/7 419/364/7 420/361/7 422/360/7 415/111/7 402/110/7 219/359/7 217/527/7 213/528/7 212/529/7 221/530/7 224/531/7 319/532/7 228/358/7 227/357/7 206/344/7 69/156/7 82/155/7 138/191/7 163/265/7 125/235/7 105/232/7 102/231/7 99/238/7 90/242/7 91/252/7 95/254/7 97/246/7 390/103/7 382/102/7 36/533/7 23/534/7 13/24/7 15/23/7 10/121/7 9/535/7 40/536/7 47/537/7 55/538/7 53/539/7
f 336/499/6 337/452/6 418/368/6 417/367/6
f 337/452/6 338/451/6 421/444/6 418/368/6
o Cube.011
v -7.020095 0.815452 1.578886
v -7.012440 0.833931 1.578886
v -7.020095 0.815452 -1.637769
v -7.012440 0.833931 -1.637769
v -4.987560 -0.026452 1.578886
v -4.979905 -0.007972 1.578886
v -4.987560 -0.026452 -1.637769
v -4.979905 -0.007972 -1.637769
vn -0.9239 0.3827 -0.0000
vn -0.0000 -0.0000 -1.0000
vn 0.9239 -0.3827 -0.0000
vn -0.0000 -0.0000 1.0000
vn -0.3827 -0.9239 -0.0000
vn 0.3827 0.9239 -0.0000
vt 0.375000 0.000000
vt 0.625000 0.000000
vt 0.625000 0.250000
vt 0.375000 0.250000
vt 0.625000 0.500000
vt 0.375000 0.500000
vt 0.625000 0.750000
vt 0.375000 0.750000
vt 0.625000 1.000000
vt 0.375000 1.000000
vt 0.125000 0.500000
vt 0.125000 0.750000
vt 0.875000 0.500000
vt 0.875000 0.750000
s 0
f 427/540/8 428/541/8 430/542/8 429/543/8
f 429/543/9 430/542/9 434/544/9 433/545/9
f 433/545/10 434/544/10 432/546/10 431/547/10
f 431/547/11 432/546/11 428/548/11 427/549/11
f 429/550/12 433/545/12 431/547/12 427/551/12
f 434/544/13 430/552/13 428/553/13 432/546/13
o Cube.001
v -5.000000 -1.688987 6.000000
v -5.000000 0.000001 6.000000
v -5.000000 -1.688987 -6.000000
v -5.000000 0.000001 -6.000000
v 5.000000 -1.688987 6.000000
v 5.000000 0.000001 6.000000
v 5.000000 -1.688987 -6.000000
v 5.000000 0.000001 -6.000000
vn -1.0000 -0.0000 -0.0000
vn -0.0000 -0.0000 -1.0000
vn 1.0000 -0.0000 -0.0000
vn -0.0000 -0.0000 1.0000
vn -0.0000 -1.0000 -0.0000
vn -0.0000 1.0000 -0.0000
vt 0.375000 0.000000
vt 0.625000 0.000000
vt 0.625000 0.250000
vt 0.375000 0.250000
vt 0.625000 0.500000
vt 0.375000 0.500000
vt 0.625000 0.750000
vt 0.375000 0.750000
vt 0.625000 1.000000
vt 0.375000 1.000000
vt 0.125000 0.500000
vt 0.125000 0.750000
vt 0.875000 0.500000
vt 0.875000 0.750000
s 0
f 435/554/14 436/555/14 438/556/14 437/557/14
f 437/557/15 438/556/15 442/558/15 441/559/15
f 441/559/16 442/558/16 440/560/16 439/561/16
f 439/561/17 440/560/17 436/562/17 435/563/17
f 437/564/18 441/559/18 439/561/18 435/565/18
f 442/558/19 438/566/19 436/567/19 440/560/19
