# Blender 4.4.0
# www.blender.org
mtllib Command Throne 2.0.mtl
o Cube
v 1.448395 1.000000 -1.901832
v 1.448395 -1.000000 -1.901832
v 1.448395 1.000000 1.901832
v 1.448395 -1.000000 1.901832
v -1.448395 1.000000 -1.901832
v -1.448395 -1.000000 -1.901832
v -1.448395 1.000000 1.901832
v -1.448395 -1.000000 1.901832
vn -0.0000 1.0000 -0.0000
vn -0.0000 -0.0000 1.0000
vn -1.0000 -0.0000 -0.0000
vn -0.0000 -1.0000 -0.0000
vn 1.0000 -0.0000 -0.0000
vn -0.0000 -0.0000 -1.0000
vt 0.625000 0.500000
vt 0.875000 0.500000
vt 0.875000 0.750000
vt 0.625000 0.750000
vt 0.375000 0.750000
vt 0.625000 1.000000
vt 0.375000 1.000000
vt 0.375000 0.000000
vt 0.625000 0.000000
vt 0.625000 0.250000
vt 0.375000 0.250000
vt 0.125000 0.500000
vt 0.375000 0.500000
vt 0.125000 0.750000
s 0
usemtl Material
f 1/1/1 5/2/1 7/3/1 3/4/1
f 4/5/2 3/4/2 7/6/2 8/7/2
f 8/8/3 7/9/3 5/10/3 6/11/3
f 6/12/4 2/13/4 4/5/4 8/14/4
f 2/13/5 1/1/5 3/4/5 4/5/5
f 6/11/6 5/10/6 1/1/6 2/13/6
o Cube.001
v 1.965758 1.814200 -1.728133
v 1.965758 0.891981 -1.728133
v 1.965758 1.814200 1.759464
v 1.965758 0.891981 1.759464
v -1.965758 1.814200 -1.728133
v -1.965758 0.891981 -1.728133
v -1.965758 1.814200 1.759464
v -1.965758 0.891981 1.759464
vn -0.0000 1.0000 -0.0000
vn -0.0000 -0.0000 1.0000
vn -1.0000 -0.0000 -0.0000
vn -0.0000 -1.0000 -0.0000
vn 1.0000 -0.0000 -0.0000
vn -0.0000 -0.0000 -1.0000
vt 0.625000 0.500000
vt 0.875000 0.500000
vt 0.875000 0.750000
vt 0.625000 0.750000
vt 0.375000 0.750000
vt 0.625000 1.000000
vt 0.375000 1.000000
vt 0.375000 0.000000
vt 0.625000 0.000000
vt 0.625000 0.250000
vt 0.375000 0.250000
vt 0.125000 0.500000
vt 0.375000 0.500000
vt 0.125000 0.750000
s 0
usemtl Material
f 9/15/7 13/16/7 15/17/7 11/18/7
f 12/19/8 11/18/8 15/20/8 16/21/8
f 16/22/9 15/23/9 13/24/9 14/25/9
f 14/26/10 10/27/10 12/19/10 16/28/10
f 10/27/11 9/15/11 11/18/11 12/19/11
f 14/25/12 13/24/12 9/15/12 10/27/12
o Cube.002
v -2.601129 -1.000000 2.637834
v -2.601129 2.891308 2.637834
v -2.601129 -1.000000 1.520971
v -2.601129 2.891308 1.520971
v 2.601129 -1.000000 2.637834
v 2.601129 2.891308 2.637834
v 2.601129 -1.000000 1.520971
v 2.601129 2.891308 1.520971
vn -1.0000 -0.0000 -0.0000
vn -0.0000 -0.0000 -1.0000
vn 1.0000 -0.0000 -0.0000
vn -0.0000 -0.0000 1.0000
vn -0.0000 -1.0000 -0.0000
vn -0.0000 1.0000 -0.0000
vt 0.375000 0.000000
vt 0.625000 0.000000
vt 0.625000 0.250000
vt 0.375000 0.250000
vt 0.625000 0.500000
vt 0.375000 0.500000
vt 0.625000 0.750000
vt 0.375000 0.750000
vt 0.625000 1.000000
vt 0.375000 1.000000
vt 0.125000 0.500000
vt 0.125000 0.750000
vt 0.875000 0.500000
vt 0.875000 0.750000
s 0
f 17/29/13 18/30/13 20/31/13 19/32/13
f 19/32/14 20/31/14 24/33/14 23/34/14
f 23/34/15 24/33/15 22/35/15 21/36/15
f 21/36/16 22/35/16 18/37/16 17/38/16
f 19/39/17 23/34/17 21/36/17 17/40/17
f 24/33/18 20/41/18 18/42/18 22/35/18
o Cylinder
v -2.582384 2.867741 1.516006
v 2.601129 2.867741 1.516006
v -2.582384 2.315386 1.794666
v 2.601129 2.315386 1.794666
v -2.582384 2.315386 2.351986
v 2.601129 2.315386 2.351986
v -2.582384 2.867741 2.630646
v 2.601129 2.867741 2.630646
v -2.582384 3.420096 2.351986
v 2.601129 3.420096 2.351986
v -2.582384 3.420096 1.794666
v 2.601129 3.420096 1.794666
v -2.582384 2.867741 1.516006
v -2.582384 2.315386 1.794666
v 2.601129 2.315386 1.794666
v 2.601129 2.867741 1.516006
v -2.582384 2.315386 2.351986
v 2.601129 2.315386 2.351986
v -2.582384 2.867741 2.630646
v 2.601129 2.867741 2.630646
v -2.582384 3.420096 2.351986
v 2.601129 3.420096 2.351986
v -2.582384 3.420096 1.794666
v 2.601129 3.420096 1.794666
vn -0.0000 0.4504 0.8928
vn -0.0000 1.0000 -0.0000
vn -0.0000 0.4504 -0.8928
vn -0.0000 -0.4504 -0.8928
vn -1.0000 -0.0000 -0.0000
vn -0.0000 -1.0000 -0.0000
vn -0.0000 -0.4504 0.8928
vn 1.0000 -0.0000 -0.0000
vt 1.000000 0.500000
vt 0.833333 0.500000
vt 0.833333 1.000000
vt 1.000000 1.000000
vt 0.666667 0.500000
vt 0.666667 1.000000
vt 0.500000 0.500000
vt 0.500000 1.000000
vt 0.333333 0.500000
vt 0.333333 1.000000
vt 0.457846 0.370000
vt 0.457846 0.130000
vt 0.250000 0.010000
vt 0.042154 0.130000
vt 0.042154 0.370000
vt 0.250000 0.490000
vt 0.166667 0.500000
vt 0.166667 1.000000
vt -0.000000 0.500000
vt -0.000000 1.000000
vt 0.750000 0.490000
vt 0.542154 0.370000
vt 0.542154 0.130000
vt 0.750000 0.010000
vt 0.957846 0.130000
vt 0.957846 0.370000
s 0
f 25/43/19 27/44/19 28/45/19 26/46/19
f 27/44/20 29/47/20 30/48/20 28/45/20
f 29/47/21 31/49/21 32/50/21 30/48/21
f 31/49/22 33/51/22 34/52/22 32/50/22
f 28/53/23 30/54/23 32/55/23 34/56/23 36/57/23 26/58/23
f 33/51/24 35/59/24 36/60/24 34/52/24
f 35/59/25 25/61/25 26/62/25 36/60/25
f 25/63/26 35/64/26 33/65/26 31/66/26 29/67/26 27/68/26
f 37/43/22 40/46/22 39/45/22 38/44/22
f 38/44/24 39/45/24 42/48/24 41/47/24
f 41/47/25 42/48/25 44/50/25 43/49/25
f 43/49/19 44/50/19 46/52/19 45/51/19
f 39/53/26 40/58/26 48/57/26 46/56/26 44/55/26 42/54/26
f 45/51/20 46/52/20 48/60/20 47/59/20
f 47/59/21 48/60/21 40/62/21 37/61/21
f 37/63/23 38/68/23 41/67/23 43/66/23 45/65/23 47/64/23
o Cube.003
v -2.601129 -1.000000 -1.613979
v -2.601129 2.891308 -1.613979
v -2.601129 -1.000000 -2.730842
v -2.601129 2.891308 -2.730842
v 2.601129 -1.000000 -1.613979
v 2.601129 2.891308 -1.613979
v 2.601129 -1.000000 -2.730842
v 2.601129 2.891308 -2.730842
vn -1.0000 -0.0000 -0.0000
vn -0.0000 -0.0000 -1.0000
vn 1.0000 -0.0000 -0.0000
vn -0.0000 -0.0000 1.0000
vn -0.0000 -1.0000 -0.0000
vn -0.0000 1.0000 -0.0000
vt 0.375000 0.000000
vt 0.625000 0.000000
vt 0.625000 0.250000
vt 0.375000 0.250000
vt 0.625000 0.500000
vt 0.375000 0.500000
vt 0.625000 0.750000
vt 0.375000 0.750000
vt 0.625000 1.000000
vt 0.375000 1.000000
vt 0.125000 0.500000
vt 0.125000 0.750000
vt 0.875000 0.500000
vt 0.875000 0.750000
s 0
f 49/69/27 50/70/27 52/71/27 51/72/27
f 51/72/28 52/71/28 56/73/28 55/74/28
f 55/74/29 56/73/29 54/75/29 53/76/29
f 53/76/30 54/75/30 50/77/30 49/78/30
f 51/79/31 55/74/31 53/76/31 49/80/31
f 56/73/32 52/81/32 50/82/32 54/75/32
o Cylinder.001
v -2.582384 2.867741 -2.730842
v 2.601129 2.867741 -2.730842
v -2.582384 2.315386 -2.452182
v 2.601129 2.315386 -2.452182
v -2.582384 2.315386 -1.894862
v 2.601129 2.315386 -1.894862
v -2.582384 2.867741 -1.616203
v 2.601129 2.867741 -1.616203
v -2.582384 3.420096 -1.894862
v 2.601129 3.420096 -1.894862
v -2.582384 3.420096 -2.452182
v 2.601129 3.420096 -2.452182
v -2.582384 2.867741 -2.730842
v -2.582384 2.315386 -2.452182
v 2.601129 2.315386 -2.452182
v 2.601129 2.867741 -2.730842
v -2.582384 2.315386 -1.894862
v 2.601129 2.315386 -1.894862
v -2.582384 2.867741 -1.616203
v 2.601129 2.867741 -1.616203
v -2.582384 3.420096 -1.894862
v 2.601129 3.420096 -1.894862
v -2.582384 3.420096 -2.452182
v 2.601129 3.420096 -2.452182
vn -0.0000 0.4504 0.8928
vn -0.0000 1.0000 -0.0000
vn -0.0000 0.4504 -0.8928
vn -0.0000 -0.4504 -0.8928
vn -1.0000 -0.0000 -0.0000
vn -0.0000 -1.0000 -0.0000
vn -0.0000 -0.4504 0.8928
vn 1.0000 -0.0000 -0.0000
vt 1.000000 0.500000
vt 0.833333 0.500000
vt 0.833333 1.000000
vt 1.000000 1.000000
vt 0.666667 0.500000
vt 0.666667 1.000000
vt 0.500000 0.500000
vt 0.500000 1.000000
vt 0.333333 0.500000
vt 0.333333 1.000000
vt 0.457846 0.370000
vt 0.457846 0.130000
vt 0.250000 0.010000
vt 0.042154 0.130000
vt 0.042154 0.370000
vt 0.250000 0.490000
vt 0.166667 0.500000
vt 0.166667 1.000000
vt -0.000000 0.500000
vt -0.000000 1.000000
vt 0.750000 0.490000
vt 0.542154 0.370000
vt 0.542154 0.130000
vt 0.750000 0.010000
vt 0.957846 0.130000
vt 0.957846 0.370000
s 0
f 57/83/33 59/84/33 60/85/33 58/86/33
f 59/84/34 61/87/34 62/88/34 60/85/34
f 61/87/35 63/89/35 64/90/35 62/88/35
f 63/89/36 65/91/36 66/92/36 64/90/36
f 60/93/37 62/94/37 64/95/37 66/96/37 68/97/37 58/98/37
f 65/91/38 67/99/38 68/100/38 66/92/38
f 67/99/39 57/101/39 58/102/39 68/100/39
f 57/103/40 67/104/40 65/105/40 63/106/40 61/107/40 59/108/40
f 69/83/36 72/86/36 71/85/36 70/84/36
f 70/84/38 71/85/38 74/88/38 73/87/38
f 73/87/39 74/88/39 76/90/39 75/89/39
f 75/89/33 76/90/33 78/92/33 77/91/33
f 71/93/40 72/98/40 80/97/40 78/96/40 76/95/40 74/94/40
f 77/91/34 78/92/34 80/100/34 79/99/34
f 79/99/35 80/100/35 72/102/35 69/101/35
f 69/103/37 70/108/37 73/107/37 75/106/37 77/105/37 79/104/37
o Cylinder.002
v -2.580756 3.405101 -2.483264
v -1.545763 3.405101 -2.483264
v -2.580756 -1.000000 -1.241632
v -1.545763 -1.000000 -1.241632
v -2.580756 -1.000000 1.241632
v -1.545763 -1.000000 1.241632
v -2.580756 3.405101 2.483264
v -1.545763 3.405101 2.483264
v -2.580756 7.810202 1.241632
v -1.545763 7.810202 1.241632
v -2.580756 7.810202 -1.241632
v -1.545763 7.810202 -1.241632
v -2.580756 1.202550 -1.862448
v -1.545763 1.202550 -1.862448
v -2.063259 3.405101 -2.483264
v -2.063260 -1.000000 -1.241632
v -2.580756 -1.000000 0.000000
v -1.545763 -1.000000 0.000000
v -2.063260 -1.000000 1.241632
v -2.580756 1.202550 1.862448
v -1.545763 1.202550 1.862448
v -2.063259 3.405101 2.483264
v -2.580756 5.607651 1.862448
v -1.545763 5.607651 1.862448
v -2.063259 7.810202 1.241632
v -2.580756 7.810202 0.000000
v -1.545763 7.810202 0.000000
v -2.063259 7.810202 -1.241632
v -2.580756 5.607651 -1.862448
v -1.545763 5.607651 -1.862448
v -2.063259 5.607651 -1.862448
v -2.063259 7.810202 0.000000
v -2.063259 5.607651 1.862448
v -2.063259 1.202550 1.862448
v -2.063260 -1.000000 0.000000
v -2.063259 1.202550 -1.862448
v -2.580756 0.101275 -1.552040
v -1.545763 0.101275 -1.552040
v -2.063260 0.101275 -1.552040
v -2.580756 0.101275 -1.552040
v -2.063260 0.101275 -1.552040
v -1.545763 0.101275 -1.552040
vn -0.0000 -0.2713 -0.9625
vn -0.0000 -1.0000 -0.0000
vn -0.0000 -0.2713 0.9625
vn -0.0000 0.2713 0.9625
vn 1.0000 -0.0000 -0.0000
vn -0.0000 1.0000 -0.0000
vn -0.0000 0.2713 -0.9625
vn -1.0000 -0.0000 -0.0000
vt 0.875000 0.750000
vt 0.875000 1.000000
vt 0.833333 1.000000
vt 0.833333 0.750000
vt 0.750000 0.750000
vt 0.750000 1.000000
vt 0.666667 1.000000
vt 0.666667 0.750000
vt 0.583333 0.750000
vt 0.583333 1.000000
vt 0.500000 1.000000
vt 0.500000 0.750000
vt 0.416667 0.750000
vt 0.416667 1.000000
vt 0.333333 1.000000
vt 0.333333 0.750000
vt 0.457846 0.370000
vt 0.405885 0.400000
vt 0.353923 0.430000
vt 0.250000 0.490000
vt 0.146077 0.430000
vt 0.042154 0.370000
vt 0.042154 0.250000
vt 0.042154 0.130000
vt 0.146077 0.070000
vt 0.250000 0.010000
vt 0.353923 0.070000
vt 0.457846 0.130000
vt 0.457846 0.250000
vt 0.250000 0.750000
vt 0.250000 1.000000
vt 0.166667 1.000000
vt 0.166667 0.750000
vt 0.083333 0.750000
vt 0.083333 1.000000
vt -0.000000 1.000000
vt -0.000000 0.750000
vt 0.750000 0.490000
vt 0.853923 0.430000
vt 0.905885 0.400000
vt 0.957846 0.370000
vt 0.957846 0.250000
vt 0.957846 0.130000
vt 0.853923 0.070000
vt 0.750000 0.010000
vt 0.646077 0.070000
vt 0.542154 0.130000
vt 0.542154 0.250000
vt 0.542154 0.370000
vt 0.646077 0.430000
vt 0.083333 0.500000
vt -0.000000 0.500000
vt 0.166667 0.500000
vt 0.250000 0.500000
vt 0.333333 0.500000
vt 0.416667 0.500000
vt 0.500000 0.500000
vt 0.583333 0.500000
vt 0.666667 0.500000
vt 0.750000 0.500000
vt 0.833333 0.500000
vt 0.875000 0.500000
vt 1.000000 0.500000
vt 1.000000 0.750000
vt 0.916667 0.750000
vt 0.916667 0.500000
vt 1.000000 1.000000
vt 0.916667 1.000000
s 0
f 121/109/41 122/110/41 84/111/41 96/112/41
f 115/113/42 98/114/42 86/115/42 99/116/42
f 114/117/43 101/118/43 88/119/43 102/120/43
f 113/121/44 104/122/44 90/123/44 105/124/44
f 84/125/45 122/126/45 118/126/45 94/127/45 82/128/45 110/129/45 92/130/45 107/131/45 90/132/45 104/133/45 88/134/45 101/135/45 86/136/45 98/137/45
f 112/138/46 107/139/46 92/140/46 108/141/46
f 111/142/47 110/143/47 82/144/47 95/145/47
f 81/146/48 93/147/48 117/148/48 120/148/48 83/149/48 97/150/48 85/151/48 100/152/48 87/153/48 103/154/48 89/155/48 106/156/48 91/157/48 109/158/48
f 109/159/47 111/142/47 95/145/47 81/160/47
f 91/161/47 108/141/47 111/142/47 109/159/47
f 108/141/47 92/140/47 110/143/47 111/142/47
f 106/162/46 112/138/46 108/141/46 91/161/46
f 89/163/46 105/124/46 112/138/46 106/162/46
f 105/124/46 90/123/46 107/139/46 112/138/46
f 103/164/44 113/121/44 105/124/44 89/163/44
f 87/165/44 102/120/44 113/121/44 103/164/44
f 102/120/44 88/119/44 104/122/44 113/121/44
f 100/166/43 114/117/43 102/120/43 87/165/43
f 85/167/43 99/116/43 114/117/43 100/166/43
f 99/116/43 86/115/43 101/118/43 114/117/43
f 97/168/42 115/113/42 99/116/42 85/167/42
f 83/169/42 96/112/42 115/113/42 97/168/42
f 96/112/42 84/111/42 98/114/42 115/113/42
f 120/170/41 121/109/41 96/112/41 83/169/41
f 81/171/41 95/172/41 116/173/41 93/174/41
f 95/172/41 82/175/41 94/176/41 116/173/41
f 93/174/41 116/173/41 119/109/41 117/170/41
f 116/173/41 94/176/41 118/110/41 119/109/41
f 117/170/45 119/109/45 121/109/45 120/170/45
f 119/109/45 118/110/45 122/110/45 121/109/45
