# Blender 4.4.0
# www.blender.org
mtllib Logistics Terminal 2.0.mtl
o Cube
v 0.302583 0.000000 0.000000
v -0.302583 0.000000 0.000000
v 0.302583 0.353553 -1.060660
v -0.302583 -0.353553 1.060660
v -0.302583 0.353553 -1.060660
v 0.302583 0.353553 1.060660
v 0.302583 -0.353553 -1.060660
v -0.302583 -0.353553 -1.060660
v 0.302583 -0.353553 1.060660
v -0.302583 0.353553 1.060660
v 0.000000 0.353553 -1.060660
v 0.302583 -0.353553 0.353553
v 0.302583 0.353553 -0.353553
v 0.302583 -0.353553 -0.353553
v 0.302583 0.353553 0.353553
v 0.000000 -0.353553 -1.060660
v -0.302583 0.353553 -0.353553
v -0.302583 -0.353553 0.353553
v -0.302583 -0.353553 -0.353553
v -0.302583 0.353553 0.353553
v 0.000000 -0.353553 1.060660
v 0.000000 0.353553 1.060660
v 0.151291 0.353553 1.060660
v 0.151291 -0.353553 1.060660
v -0.302583 0.000000 0.707107
v -0.302583 0.000000 -0.707107
v 0.151291 -0.353553 -1.060660
v -0.151291 -0.353553 -1.060660
v 0.302583 0.000000 -0.707107
v -0.151291 0.353553 -1.060660
v 0.151291 0.353553 -1.060660
v 0.302583 0.000000 0.707107
v -0.151291 -0.353553 1.060660
v -0.151291 0.353553 1.060660
v 0.302583 0.176777 -1.237437
v -0.302583 0.176777 -1.237437
v 0.302583 0.176777 1.237437
v -0.302583 -0.530330 -0.883883
v 0.302583 -0.530330 0.883883
v 0.000000 0.176777 -1.237437
v 0.302583 -0.530330 0.530330
v 0.302583 0.176777 -0.176777
v 0.302583 -0.530330 -0.530330
v 0.302583 0.176777 0.176777
v 0.000000 -0.530330 -0.883883
v -0.302583 -0.176777 0.176777
v -0.302583 -0.530330 -0.530330
v -0.302583 0.176777 0.176777
v 0.000000 -0.530330 0.883883
v 0.000000 0.176777 1.237437
v -0.302583 -0.530330 0.883883
v 0.302583 -0.530330 -0.883883
v -0.302583 0.176777 1.237437
v 0.302583 -0.176777 0.176777
v 0.302583 -0.176777 -0.176777
v -0.302583 0.176777 -0.176777
v -0.302583 -0.530330 0.530330
v -0.302583 -0.176777 -0.176777
v 0.151291 0.176777 1.237437
v 0.226937 0.353553 1.060660
v 0.075646 0.353553 1.060660
v 0.075646 -0.353553 1.060660
v 0.226937 -0.353553 1.060660
v 0.151291 -0.530330 0.883883
v -0.302583 0.176777 0.530330
v -0.302583 -0.176777 0.883883
v -0.302583 -0.176777 0.530330
v -0.302583 0.176777 0.883883
v -0.302583 -0.530330 -0.176777
v -0.302583 -0.530330 0.176777
v -0.302583 0.176777 -0.883883
v -0.302583 -0.176777 -0.530330
v -0.302583 -0.176777 -0.883883
v -0.302583 0.176777 -0.530330
v 0.151291 -0.530330 -0.883883
v 0.075646 -0.353553 -1.060660
v 0.226937 -0.353553 -1.060660
v -0.151291 -0.530330 -0.883883
v -0.226937 -0.353553 -1.060660
v -0.075646 -0.353553 -1.060660
v 0.302583 -0.176777 -0.530330
v 0.302583 0.176777 -0.883883
v 0.302583 -0.176777 -0.883883
v 0.302583 0.176777 -0.530330
v 0.302583 -0.530330 -0.176777
v 0.302583 -0.530330 0.176777
v -0.075646 0.353553 -1.060660
v -0.226937 0.353553 -1.060660
v -0.151291 0.176777 -1.237437
v 0.226937 0.353553 -1.060660
v 0.075646 0.353553 -1.060660
v 0.151291 0.176777 -1.237437
v 0.302583 -0.176777 0.883883
v 0.302583 0.176777 0.530330
v 0.302583 -0.176777 0.530330
v 0.302583 0.176777 0.883883
v -0.226937 -0.353553 1.060660
v -0.075646 -0.353553 1.060660
v -0.151291 -0.530330 0.883883
v -0.151291 0.176777 1.237437
v -0.075646 0.353553 1.060660
v -0.226937 0.353553 1.060660
v -0.075646 0.176777 1.237437
v -0.075646 -0.530330 0.883883
v -0.226937 -0.530330 0.883883
v -0.302583 0.353553 0.000000
v 0.302583 0.353553 0.707107
v 0.302583 0.000000 0.353553
v 0.302583 -0.353553 0.707107
v 0.075646 0.176777 -1.237437
v 0.226937 0.176777 -1.237437
v -0.226937 0.176777 -1.237437
v -0.075646 0.176777 -1.237437
v 0.302583 -0.353553 0.000000
v 0.302583 0.353553 -0.707107
v 0.302583 0.000000 -1.060660
v 0.302583 -0.353553 -0.707107
v 0.302583 0.353553 0.000000
v -0.226937 -0.530330 -0.883883
v 0.075646 -0.530330 -0.883883
v -0.302583 0.000000 -0.353553
v -0.302583 -0.353553 -0.707107
v -0.302583 0.000000 -1.060660
v -0.302583 0.000000 1.060660
v -0.302583 -0.353553 0.707107
v -0.302583 0.000000 0.353553
v 0.226937 -0.530330 0.883883
v 0.075646 -0.530330 0.883883
v 0.226937 0.176777 1.237437
v 0.075646 0.176777 1.237437
v -0.302583 0.353553 0.707107
v -0.302583 -0.353553 0.000000
v -0.302583 0.353553 -0.707107
v 0.226937 -0.530330 -0.883883
v -0.075646 -0.530330 -0.883883
v 0.302583 0.000000 -0.353553
v 0.302583 0.000000 1.060660
v -0.226937 0.176777 1.237437
v -0.302583 -0.618718 -0.795495
v 0.302583 -0.618718 0.795495
v 0.302583 -0.618718 0.618718
v 0.302583 0.088388 -0.088388
v 0.302583 -0.618718 -0.618718
v 0.302583 0.088388 0.088388
v 0.000000 -0.618718 -0.795495
v -0.302583 -0.088388 0.088388
v -0.302583 -0.618718 -0.618718
v -0.302583 0.088388 0.088388
v 0.000000 -0.618718 0.795495
v -0.302583 -0.441942 0.972272
v 0.302583 -0.441942 -0.972272
v -0.302583 0.265165 1.149049
v 0.302583 -0.265165 0.265165
v 0.302583 -0.265165 -0.265165
v -0.302583 0.265165 -0.265165
v -0.302583 -0.441942 0.441942
v -0.302583 -0.265165 -0.265165
v 0.264760 0.353553 1.060660
v 0.113468 0.353553 1.060660
v 0.037823 -0.353553 1.060660
v 0.189114 -0.353553 1.060660
v 0.151291 -0.618718 0.795495
v -0.302583 0.265165 0.441942
v -0.302583 -0.088388 0.795495
v -0.302583 -0.265165 0.441942
v -0.302583 0.088388 0.795495
v -0.302583 -0.441942 -0.265165
v -0.302583 -0.618718 0.088388
v -0.302583 0.265165 -0.972272
v -0.302583 -0.088388 -0.618718
v -0.302583 -0.265165 -0.972272
v -0.302583 0.088388 -0.618718
v 0.151291 -0.618718 -0.795495
v 0.037823 -0.353553 -1.060660
v 0.189114 -0.353553 -1.060660
v -0.151291 -0.618718 -0.795495
v -0.264760 -0.353553 -1.060660
v -0.113468 -0.353553 -1.060660
v 0.302583 -0.265165 -0.441942
v 0.302583 0.088388 -0.795495
v 0.302583 -0.265165 -0.972272
v 0.302583 0.088388 -0.618718
v 0.302583 -0.618718 -0.088388
v 0.302583 -0.618718 0.088388
v -0.037823 0.353553 -1.060660
v -0.189114 0.353553 -1.060660
v 0.264760 0.353553 -1.060660
v 0.113468 0.353553 -1.060660
v 0.302583 -0.265165 0.972272
v 0.302583 0.088388 0.618718
v 0.302583 -0.265165 0.441942
v 0.302583 0.088388 0.795495
v -0.264760 -0.353553 1.060660
v -0.113468 -0.353553 1.060660
v -0.151291 -0.618718 0.795495
v -0.037823 0.353553 1.060660
v -0.189114 0.353553 1.060660
v 0.302583 0.265165 -1.149049
v -0.302583 0.265165 -1.149049
v 0.302583 0.265165 1.149049
v -0.302583 -0.441942 -0.972272
v 0.302583 -0.441942 0.972272
v 0.000000 0.265165 -1.149049
v 0.302583 -0.441942 0.441942
v 0.302583 0.265165 -0.265165
v 0.302583 -0.441942 -0.441942
v 0.302583 0.265165 0.265165
v 0.000000 -0.441942 -0.972272
v -0.302583 -0.265165 0.265165
v -0.302583 -0.441942 -0.441942
v -0.302583 0.265165 0.265165
v 0.000000 -0.441942 0.972272
v 0.000000 0.265165 1.149049
v -0.302583 -0.618718 0.795495
v 0.302583 -0.618718 -0.795495
v 0.302583 -0.088388 0.088388
v 0.302583 -0.088388 -0.088388
v -0.302583 0.088388 -0.088388
v -0.302583 -0.618718 0.618718
v -0.302583 -0.088388 -0.088388
v 0.151291 0.265165 1.149049
v 0.189114 0.353553 1.060660
v 0.037823 0.353553 1.060660
v 0.113468 -0.353553 1.060660
v 0.264760 -0.353553 1.060660
v 0.151291 -0.441942 0.972272
v -0.302583 0.088388 0.618718
v -0.302583 -0.265165 0.972272
v -0.302583 -0.088388 0.618718
v -0.302583 0.265165 0.972272
v -0.302583 -0.618718 -0.088388
v -0.302583 -0.441942 0.265165
v -0.302583 0.088388 -0.795495
v -0.302583 -0.265165 -0.441942
v -0.302583 -0.088388 -0.795495
v -0.302583 0.265165 -0.441942
v 0.151291 -0.441942 -0.972272
v 0.113468 -0.353553 -1.060660
v 0.264760 -0.353553 -1.060660
v -0.151291 -0.441942 -0.972272
v -0.189114 -0.353553 -1.060660
v -0.037823 -0.353553 -1.060660
v 0.302583 -0.088388 -0.618718
v 0.302583 0.265165 -0.972272
v 0.302583 -0.088388 -0.795495
v 0.302583 0.265165 -0.441942
v 0.302583 -0.441942 -0.265165
v 0.302583 -0.441942 0.265165
v -0.113468 0.353553 -1.060660
v -0.264760 0.353553 -1.060660
v -0.151291 0.265165 -1.149049
v 0.189114 0.353553 -1.060660
v 0.037823 0.353553 -1.060660
v 0.151291 0.265165 -1.149049
v 0.302583 -0.088388 0.795495
v 0.302583 0.265165 0.441942
v 0.302583 -0.088388 0.618718
v 0.302583 0.265165 0.972272
v -0.189114 -0.353553 1.060660
v -0.037823 -0.353553 1.060660
v -0.151291 -0.441942 0.972272
v -0.151291 0.265165 1.149049
v -0.113468 0.353553 1.060660
v -0.264760 0.353553 1.060660
v -0.075646 0.265165 1.149049
v -0.037823 0.176777 1.237437
v -0.113468 0.176777 1.237437
v -0.113468 -0.530330 0.883883
v -0.037823 -0.530330 0.883883
v -0.075646 -0.618718 0.795495
v -0.075646 -0.441942 0.972272
v -0.264760 -0.530330 0.883883
v -0.189114 -0.530330 0.883883
v -0.226937 -0.618718 0.795495
v -0.226937 -0.441942 0.972272
v -0.302583 0.265165 0.088388
v -0.302583 0.265165 -0.088388
v 0.302583 0.265165 0.795495
v 0.302583 0.265165 0.618718
v 0.302583 -0.088388 0.441942
v 0.302583 0.088388 0.265165
v 0.302583 -0.088388 0.265165
v 0.302583 0.088388 0.441942
v 0.302583 -0.441942 0.795495
v 0.302583 -0.265165 0.618718
v 0.302583 -0.441942 0.618718
v 0.302583 -0.265165 0.795495
v 0.113468 0.176777 -1.237437
v 0.037823 0.176777 -1.237437
v 0.075646 0.265165 -1.149049
v 0.264760 0.176777 -1.237437
v 0.189114 0.176777 -1.237437
v 0.226937 0.265165 -1.149049
v -0.189114 0.176777 -1.237437
v -0.264760 0.176777 -1.237437
v -0.226937 0.265165 -1.149049
v -0.037823 0.176777 -1.237437
v -0.113468 0.176777 -1.237437
v -0.075646 0.265165 -1.149049
v 0.302583 -0.441942 0.088388
v 0.302583 -0.265165 -0.088388
v 0.302583 -0.441942 -0.088388
v 0.302583 -0.265165 0.088388
v 0.302583 -0.618718 -0.441942
v 0.302583 -0.618718 -0.265165
v 0.302583 0.265165 -0.618718
v 0.302583 0.265165 -0.795495
v 0.302583 -0.088388 -0.972272
v 0.302583 0.088388 -1.149049
v 0.302583 0.088388 -0.972272
v 0.302583 -0.441942 -0.618718
v 0.302583 -0.265165 -0.795495
v 0.302583 -0.441942 -0.795495
v 0.302583 -0.265165 -0.618718
v 0.302583 0.265165 0.088388
v 0.302583 0.265165 -0.088388
v -0.226937 -0.618718 -0.795495
v -0.226937 -0.441942 -0.972272
v -0.264760 -0.530330 -0.883883
v -0.189114 -0.530330 -0.883883
v 0.075646 -0.618718 -0.795495
v 0.075646 -0.441942 -0.972272
v 0.037823 -0.530330 -0.883883
v 0.113468 -0.530330 -0.883883
v -0.302583 0.088388 -0.441942
v -0.302583 -0.088388 -0.265165
v -0.302583 -0.088388 -0.441942
v -0.302583 0.088388 -0.265165
v -0.302583 -0.265165 -0.795495
v -0.302583 -0.441942 -0.618718
v -0.302583 -0.441942 -0.795495
v -0.302583 -0.265165 -0.618718
v -0.302583 0.088388 -1.149049
v -0.302583 -0.088388 -0.972272
v -0.302583 0.088388 -0.972272
v -0.302583 -0.618718 0.265165
v -0.302583 -0.618718 0.441942
v -0.302583 -0.618718 -0.441942
v -0.302583 -0.618718 -0.265165
v -0.302583 0.088388 0.972272
v -0.302583 -0.088388 0.972272
v -0.302583 0.088388 1.149049
v -0.302583 -0.265165 0.618718
v -0.302583 -0.441942 0.795495
v -0.302583 -0.441942 0.618718
v -0.302583 -0.265165 0.795495
v -0.302583 0.088388 0.265165
v -0.302583 -0.088388 0.441942
v -0.302583 -0.088388 0.265165
v -0.302583 0.088388 0.441942
v 0.189114 -0.530330 0.883883
v 0.264760 -0.530330 0.883883
v 0.226937 -0.618718 0.795495
v 0.226937 -0.441942 0.972272
v 0.037823 -0.530330 0.883883
v 0.113468 -0.530330 0.883883
v 0.075646 -0.618718 0.795495
v 0.075646 -0.441942 0.972272
v 0.226937 0.265165 1.149049
v 0.264760 0.176777 1.237437
v 0.189114 0.176777 1.237437
v 0.075646 0.265165 1.149049
v 0.113468 0.176777 1.237437
v 0.037823 0.176777 1.237437
v -0.302583 0.265165 0.795495
v -0.302583 0.265165 0.618718
v -0.302583 -0.265165 -0.088388
v -0.302583 -0.441942 0.088388
v -0.302583 -0.441942 -0.088388
v -0.302583 -0.265165 0.088388
v -0.302583 0.265165 -0.618718
v -0.302583 0.265165 -0.795495
v 0.226937 -0.618718 -0.795495
v 0.226937 -0.441942 -0.972272
v 0.189114 -0.530330 -0.883883
v 0.264760 -0.530330 -0.883883
v -0.075646 -0.618718 -0.795495
v -0.075646 -0.441942 -0.972272
v -0.113468 -0.530330 -0.883883
v -0.037823 -0.530330 -0.883883
v 0.302583 -0.088388 -0.265165
v 0.302583 0.088388 -0.441942
v 0.302583 -0.088388 -0.441942
v 0.302583 0.088388 -0.265165
v 0.302583 -0.618718 0.265165
v 0.302583 -0.618718 0.441942
v 0.302583 0.088388 0.972272
v 0.302583 -0.088388 0.972272
v 0.302583 0.088388 1.149049
v -0.226937 0.265165 1.149049
v -0.189114 0.176777 1.237437
v -0.264760 0.176777 1.237437
v -0.264760 0.265165 1.149049
v -0.189114 0.265165 1.149049
v 0.302583 0.176777 1.060660
v 0.302583 0.000000 0.883883
v 0.302583 -0.530330 0.353553
v 0.302583 0.176777 -0.353553
v 0.302583 0.000000 -0.530330
v 0.302583 -0.176777 -0.353553
v -0.037823 -0.441942 -0.972272
v -0.113468 -0.441942 -0.972272
v -0.113468 -0.618718 -0.795495
v 0.264760 -0.441942 -0.972272
v 0.189114 -0.441942 -0.972272
v 0.189114 -0.618718 -0.795495
v -0.302583 0.353553 -0.530330
v -0.302583 0.176777 -0.707107
v -0.302583 0.353553 -0.883883
v -0.302583 -0.353553 0.176777
v -0.302583 -0.530330 0.000000
v -0.302583 -0.353553 -0.176777
v -0.302583 0.353553 0.883883
v -0.302583 0.176777 0.707107
v -0.302583 0.353553 0.530330
v 0.037823 0.265165 1.149049
v 0.113468 0.265165 1.149049
v 0.189114 0.265165 1.149049
v 0.264760 0.265165 1.149049
v 0.113468 -0.441942 0.972272
v 0.113468 -0.618718 0.795495
v 0.037823 -0.618718 0.795495
v 0.264760 -0.441942 0.972272
v 0.264760 -0.618718 0.795495
v 0.189114 -0.618718 0.795495
v -0.302583 0.000000 0.530330
v -0.302583 -0.176777 0.353553
v -0.302583 0.000000 0.176777
v -0.302583 -0.353553 0.883883
v -0.302583 -0.530330 0.707107
v -0.302583 -0.353553 0.530330
v -0.302583 0.000000 0.883883
v -0.302583 0.000000 -0.883883
v -0.302583 -0.353553 -0.530330
v -0.302583 -0.530330 -0.707107
v -0.302583 -0.353553 -0.883883
v -0.302583 0.000000 -0.176777
v -0.302583 -0.176777 -0.353553
v -0.302583 0.000000 -0.530330
v 0.113468 -0.441942 -0.972272
v 0.037823 -0.441942 -0.972272
v 0.037823 -0.618718 -0.795495
v -0.189114 -0.441942 -0.972272
v -0.264760 -0.441942 -0.972272
v -0.264760 -0.618718 -0.795495
v 0.302583 0.353553 -0.176777
v 0.302583 0.176777 0.000000
v 0.302583 -0.176777 -0.707107
v 0.302583 -0.353553 -0.883883
v 0.302583 -0.530330 -0.707107
v 0.302583 0.176777 -1.060660
v 0.302583 0.353553 -0.883883
v 0.302583 0.176777 -0.707107
v 0.302583 -0.530330 -0.353553
v 0.302583 -0.176777 0.000000
v 0.302583 -0.353553 -0.176777
v 0.302583 -0.530330 0.000000
v -0.113468 0.265165 -1.149049
v -0.264760 0.265165 -1.149049
v 0.189114 0.265165 -1.149049
v 0.037823 0.265165 -1.149049
v 0.302583 -0.176777 0.707107
v 0.302583 -0.353553 0.530330
v 0.302583 -0.530330 0.707107
v 0.302583 0.176777 0.353553
v 0.302583 0.000000 0.176777
v 0.302583 -0.176777 0.353553
v 0.302583 0.353553 0.530330
v 0.302583 0.176777 0.707107
v -0.302583 0.353553 0.176777
v -0.302583 0.176777 0.000000
v -0.302583 0.353553 -0.176777
v -0.189114 -0.441942 0.972272
v -0.189114 -0.618718 0.795495
v -0.264760 -0.618718 0.795495
v -0.037823 -0.441942 0.972272
v -0.037823 -0.618718 0.795495
v -0.113468 -0.618718 0.795495
v -0.113468 0.265165 1.149049
v -0.037823 0.265165 1.149049
v -0.113468 -0.441942 0.972272
v -0.264760 -0.441942 0.972272
v 0.302583 0.353553 0.883883
v 0.302583 0.000000 0.530330
v 0.302583 -0.353553 0.883883
v 0.113468 0.265165 -1.149049
v 0.264760 0.265165 -1.149049
v -0.189114 0.265165 -1.149049
v -0.037823 0.265165 -1.149049
v 0.302583 -0.353553 0.176777
v 0.302583 0.353553 -0.530330
v 0.302583 0.000000 -0.883883
v 0.302583 -0.353553 -0.530330
v 0.302583 0.353553 0.176777
v -0.189114 -0.618718 -0.795495
v 0.113468 -0.618718 -0.795495
v -0.302583 0.176777 -0.353553
v -0.302583 -0.176777 -0.707107
v -0.302583 0.176777 -1.060660
v -0.302583 -0.530330 0.353553
v -0.302583 -0.530330 -0.353553
v -0.302583 0.176777 1.060660
v -0.302583 -0.176777 0.707107
v -0.302583 0.176777 0.353553
v 0.189114 -0.441942 0.972272
v 0.037823 -0.441942 0.972272
v -0.302583 -0.176777 0.000000
v 0.264760 -0.618718 -0.795495
v -0.037823 -0.618718 -0.795495
v 0.302583 0.000000 -0.176777
v -0.302895 -0.637150 1.061157
v -0.302895 -0.353553 1.061157
v -0.302895 -0.637150 -1.061157
v -0.302895 -0.353553 -1.061157
v 0.302895 -0.637150 1.061157
v 0.302895 -0.353553 1.061157
v 0.302895 -0.637150 -1.061157
v 0.302895 -0.353553 -1.061157
v -0.297769 -0.633238 -0.428719
v -0.297769 -0.525172 -0.320654
v -0.297769 0.175480 -1.237437
v -0.297769 0.283545 -1.129371
v 0.297769 -0.633238 -0.428719
v 0.297769 -0.525172 -0.320654
v 0.297769 0.175480 -1.237437
v 0.297769 0.283545 -1.129371
v -0.297769 -0.418370 0.996754
v -0.297769 -0.353553 1.061570
v -0.297769 0.066687 0.511697
v -0.297769 0.131503 0.576514
v 0.297769 -0.418370 0.996754
v 0.297769 -0.353553 1.061570
v 0.297769 0.066687 0.511697
v 0.297769 0.131503 0.576514
v -0.297769 0.066687 -0.514033
v -0.297769 0.131503 -0.578849
v -0.297769 -0.418370 -0.999090
v -0.297769 -0.353553 -1.063906
v 0.297769 0.066687 -0.514033
v 0.297769 0.131503 -0.578849
v 0.297769 -0.418370 -0.999090
v 0.297769 -0.353553 -1.063906
v -0.297769 0.175480 1.237461
v -0.297769 0.283545 1.129396
v -0.297769 -0.633238 0.428744
v -0.297769 -0.525172 0.320678
v 0.297769 0.175480 1.237461
v 0.297769 0.283545 1.129396
v 0.297769 -0.633238 0.428744
v 0.297769 -0.525172 0.320678
v -0.302895 0.207556 1.061157
v -0.302895 0.353553 1.061157
v -0.302895 0.207556 -1.061157
v -0.302895 0.353553 -1.061157
v 0.302895 0.207556 1.061157
v 0.302895 0.353553 1.061157
v 0.302895 0.207556 -1.061157
v 0.302895 0.353553 -1.061157
vn 1.0000 -0.0000 -0.0000
vn -1.0000 -0.0000 -0.0000
vn -0.0000 -0.7071 0.7071
vn -0.0000 0.7071 -0.7071
vn -0.0000 0.7071 0.7071
vn -0.0000 -0.7071 -0.7071
vn -0.0000 -0.0000 -1.0000
vn -0.0000 -0.0000 1.0000
vn -0.0000 -1.0000 -0.0000
vn -0.0000 1.0000 -0.0000
vt 0.484375 0.609375
vt 0.500000 0.609375
vt 0.500000 0.625000
vt 0.484375 0.625000
vt 0.484375 0.109375
vt 0.500000 0.109375
vt 0.500000 0.125000
vt 0.484375 0.125000
vt 0.546875 0.859375
vt 0.562500 0.859375
vt 0.562500 0.875000
vt 0.546875 0.875000
vt 0.546875 0.796875
vt 0.562500 0.796875
vt 0.562500 0.812500
vt 0.546875 0.812500
vt 0.546875 0.109375
vt 0.562500 0.109375
vt 0.562500 0.125000
vt 0.546875 0.125000
vt 0.546875 0.046875
vt 0.562500 0.046875
vt 0.562500 0.062500
vt 0.546875 0.062500
vt 0.609375 0.046875
vt 0.625000 0.046875
vt 0.625000 0.062500
vt 0.609375 0.062500
vt 0.421875 0.109375
vt 0.437500 0.109375
vt 0.437500 0.125000
vt 0.421875 0.125000
vt 0.484375 0.046875
vt 0.500000 0.046875
vt 0.500000 0.062500
vt 0.484375 0.062500
vt 0.421875 0.234375
vt 0.437500 0.234375
vt 0.437500 0.250000
vt 0.421875 0.250000
vt 0.421875 0.171875
vt 0.437500 0.171875
vt 0.437500 0.187500
vt 0.421875 0.187500
vt 0.484375 0.171875
vt 0.500000 0.171875
vt 0.500000 0.187500
vt 0.484375 0.187500
vt 0.421875 0.609375
vt 0.437500 0.609375
vt 0.437500 0.625000
vt 0.421875 0.625000
vt 0.421875 0.546875
vt 0.437500 0.546875
vt 0.437500 0.562500
vt 0.421875 0.562500
vt 0.484375 0.671875
vt 0.500000 0.671875
vt 0.500000 0.687500
vt 0.484375 0.687500
vt 0.421875 0.359375
vt 0.437500 0.359375
vt 0.437500 0.375000
vt 0.421875 0.375000
vt 0.421875 0.296875
vt 0.437500 0.296875
vt 0.437500 0.312500
vt 0.421875 0.312500
vt 0.421875 0.484375
vt 0.437500 0.484375
vt 0.437500 0.500000
vt 0.421875 0.500000
vt 0.421875 0.421875
vt 0.437500 0.421875
vt 0.437500 0.437500
vt 0.421875 0.437500
vt 0.546875 0.734375
vt 0.562500 0.734375
vt 0.562500 0.750000
vt 0.546875 0.750000
vt 0.546875 0.671875
vt 0.562500 0.671875
vt 0.562500 0.687500
vt 0.546875 0.687500
vt 0.546875 0.984375
vt 0.562500 0.984375
vt 0.562500 1.000000
vt 0.546875 1.000000
vt 0.546875 0.921875
vt 0.562500 0.921875
vt 0.562500 0.937500
vt 0.546875 0.937500
vt 0.765625 0.703125
vt 0.781250 0.703125
vt 0.781250 0.718750
vt 0.765625 0.718750
vt 0.796875 0.703125
vt 0.812500 0.703125
vt 0.812500 0.718750
vt 0.796875 0.718750
vt 0.515625 0.921875
vt 0.531250 0.921875
vt 0.531250 0.937500
vt 0.515625 0.937500
vt 0.515625 0.890625
vt 0.531250 0.890625
vt 0.531250 0.906250
vt 0.515625 0.906250
vt 0.546875 0.890625
vt 0.562500 0.890625
vt 0.562500 0.906250
vt 0.546875 0.906250
vt 0.515625 0.984375
vt 0.531250 0.984375
vt 0.531250 1.000000
vt 0.515625 1.000000
vt 0.515625 0.953125
vt 0.531250 0.953125
vt 0.531250 0.968750
vt 0.515625 0.968750
vt 0.546875 0.953125
vt 0.562500 0.953125
vt 0.562500 0.968750
vt 0.546875 0.968750
vt 0.515625 0.140625
vt 0.531250 0.140625
vt 0.531250 0.156250
vt 0.515625 0.156250
vt 0.578125 0.671875
vt 0.593750 0.671875
vt 0.593750 0.687500
vt 0.578125 0.687500
vt 0.515625 0.671875
vt 0.531250 0.671875
vt 0.531250 0.687500
vt 0.515625 0.687500
vt 0.515625 0.640625
vt 0.531250 0.640625
vt 0.531250 0.656250
vt 0.515625 0.656250
vt 0.546875 0.640625
vt 0.562500 0.640625
vt 0.562500 0.656250
vt 0.546875 0.656250
vt 0.515625 0.734375
vt 0.531250 0.734375
vt 0.531250 0.750000
vt 0.515625 0.750000
vt 0.515625 0.703125
vt 0.531250 0.703125
vt 0.531250 0.718750
vt 0.515625 0.718750
vt 0.546875 0.703125
vt 0.562500 0.703125
vt 0.562500 0.718750
vt 0.546875 0.718750
vt 0.421875 0.390625
vt 0.437500 0.390625
vt 0.437500 0.406250
vt 0.421875 0.406250
vt 0.421875 0.453125
vt 0.437500 0.453125
vt 0.437500 0.468750
vt 0.421875 0.468750
vt 0.421875 0.265625
vt 0.437500 0.265625
vt 0.437500 0.281250
vt 0.421875 0.281250
vt 0.421875 0.328125
vt 0.437500 0.328125
vt 0.437500 0.343750
vt 0.421875 0.343750
vt 0.453125 0.671875
vt 0.468750 0.671875
vt 0.468750 0.687500
vt 0.453125 0.687500
vt 0.453125 0.640625
vt 0.468750 0.640625
vt 0.468750 0.656250
vt 0.453125 0.656250
vt 0.484375 0.640625
vt 0.500000 0.640625
vt 0.500000 0.656250
vt 0.484375 0.656250
vt 0.421875 0.640625
vt 0.437500 0.640625
vt 0.437500 0.656250
vt 0.421875 0.656250
vt 0.453125 0.546875
vt 0.468750 0.546875
vt 0.468750 0.562500
vt 0.453125 0.562500
vt 0.421875 0.515625
vt 0.437500 0.515625
vt 0.437500 0.531250
vt 0.421875 0.531250
vt 0.390625 0.609375
vt 0.406250 0.609375
vt 0.406250 0.625000
vt 0.390625 0.625000
vt 0.390625 0.578125
vt 0.406250 0.578125
vt 0.406250 0.593750
vt 0.390625 0.593750
vt 0.421875 0.578125
vt 0.437500 0.578125
vt 0.437500 0.593750
vt 0.421875 0.593750
vt 0.515625 0.609375
vt 0.531250 0.609375
vt 0.531250 0.625000
vt 0.515625 0.625000
vt 0.140625 0.578125
vt 0.156250 0.578125
vt 0.156250 0.593750
vt 0.140625 0.593750
vt 0.171875 0.578125
vt 0.187500 0.578125
vt 0.187500 0.593750
vt 0.171875 0.593750
vt 0.265625 0.578125
vt 0.281250 0.578125
vt 0.281250 0.593750
vt 0.265625 0.593750
vt 0.296875 0.578125
vt 0.312500 0.578125
vt 0.312500 0.593750
vt 0.296875 0.593750
vt 0.453125 0.171875
vt 0.468750 0.171875
vt 0.468750 0.187500
vt 0.453125 0.187500
vt 0.453125 0.140625
vt 0.468750 0.140625
vt 0.468750 0.156250
vt 0.453125 0.156250
vt 0.484375 0.140625
vt 0.500000 0.140625
vt 0.500000 0.156250
vt 0.484375 0.156250
vt 0.390625 0.171875
vt 0.406250 0.171875
vt 0.406250 0.187500
vt 0.390625 0.187500
vt 0.390625 0.140625
vt 0.406250 0.140625
vt 0.406250 0.156250
vt 0.390625 0.156250
vt 0.421875 0.140625
vt 0.437500 0.140625
vt 0.437500 0.156250
vt 0.421875 0.156250
vt 0.421875 0.203125
vt 0.437500 0.203125
vt 0.437500 0.218750
vt 0.421875 0.218750
vt 0.578125 0.046875
vt 0.593750 0.046875
vt 0.593750 0.062500
vt 0.578125 0.062500
vt 0.515625 0.046875
vt 0.531250 0.046875
vt 0.531250 0.062500
vt 0.515625 0.062500
vt 0.515625 0.015625
vt 0.531250 0.015625
vt 0.531250 0.031250
vt 0.515625 0.031250
vt 0.546875 0.015625
vt 0.562500 0.015625
vt 0.562500 0.031250
vt 0.546875 0.031250
vt 0.515625 0.109375
vt 0.531250 0.109375
vt 0.531250 0.125000
vt 0.515625 0.125000
vt 0.515625 0.078125
vt 0.531250 0.078125
vt 0.531250 0.093750
vt 0.515625 0.093750
vt 0.546875 0.078125
vt 0.562500 0.078125
vt 0.562500 0.093750
vt 0.546875 0.093750
vt 0.515625 0.796875
vt 0.531250 0.796875
vt 0.531250 0.812500
vt 0.515625 0.812500
vt 0.515625 0.765625
vt 0.531250 0.765625
vt 0.531250 0.781250
vt 0.515625 0.781250
vt 0.546875 0.765625
vt 0.562500 0.765625
vt 0.562500 0.781250
vt 0.546875 0.781250
vt 0.515625 0.859375
vt 0.531250 0.859375
vt 0.531250 0.875000
vt 0.515625 0.875000
vt 0.515625 0.828125
vt 0.531250 0.828125
vt 0.531250 0.843750
vt 0.515625 0.843750
vt 0.546875 0.828125
vt 0.562500 0.828125
vt 0.562500 0.843750
vt 0.546875 0.843750
vt 0.640625 0.703125
vt 0.656250 0.703125
vt 0.656250 0.718750
vt 0.640625 0.718750
vt 0.671875 0.703125
vt 0.687500 0.703125
vt 0.687500 0.718750
vt 0.671875 0.718750
vt 0.703125 0.703125
vt 0.718750 0.703125
vt 0.718750 0.718750
vt 0.703125 0.718750
vt 0.734375 0.703125
vt 0.750000 0.703125
vt 0.750000 0.718750
vt 0.734375 0.718750
vt 0.578125 0.078125
vt 0.593750 0.078125
vt 0.593750 0.093750
vt 0.578125 0.093750
vt 0.453125 0.109375
vt 0.468750 0.109375
vt 0.468750 0.125000
vt 0.453125 0.125000
vt 0.453125 0.078125
vt 0.468750 0.078125
vt 0.468750 0.093750
vt 0.453125 0.093750
vt 0.484375 0.078125
vt 0.500000 0.078125
vt 0.500000 0.093750
vt 0.484375 0.093750
vt 0.453125 0.203125
vt 0.468750 0.203125
vt 0.468750 0.218750
vt 0.453125 0.218750
vt 0.328125 0.578125
vt 0.343750 0.578125
vt 0.343750 0.593750
vt 0.328125 0.593750
vt 0.359375 0.578125
vt 0.375000 0.578125
vt 0.375000 0.593750
vt 0.359375 0.593750
vt 0.203125 0.578125
vt 0.218750 0.578125
vt 0.218750 0.593750
vt 0.203125 0.593750
vt 0.234375 0.578125
vt 0.250000 0.578125
vt 0.250000 0.593750
vt 0.234375 0.593750
vt 0.453125 0.609375
vt 0.468750 0.609375
vt 0.468750 0.625000
vt 0.453125 0.625000
vt 0.453125 0.578125
vt 0.468750 0.578125
vt 0.468750 0.593750
vt 0.453125 0.593750
vt 0.484375 0.578125
vt 0.500000 0.578125
vt 0.500000 0.593750
vt 0.484375 0.593750
vt 0.484375 0.703125
vt 0.500000 0.703125
vt 0.500000 0.718750
vt 0.484375 0.718750
vt 0.578125 0.703125
vt 0.593750 0.703125
vt 0.593750 0.718750
vt 0.578125 0.718750
vt 0.609375 0.703125
vt 0.625000 0.703125
vt 0.625000 0.718750
vt 0.609375 0.718750
vt 0.828125 0.703125
vt 0.843750 0.703125
vt 0.843750 0.718750
vt 0.828125 0.718750
vt 0.859375 0.703125
vt 0.875000 0.703125
vt 0.875000 0.718750
vt 0.859375 0.718750
vt 0.843750 0.687500
vt 0.859375 0.687500
vt 0.875000 0.687500
vt 0.812500 0.687500
vt 0.828125 0.687500
vt 0.609375 0.687500
vt 0.625000 0.687500
vt 0.468750 0.703125
vt 0.484375 0.562500
vt 0.500000 0.562500
vt 0.218750 0.562500
vt 0.234375 0.562500
vt 0.250000 0.562500
vt 0.187500 0.562500
vt 0.203125 0.562500
vt 0.203125 0.609375
vt 0.187500 0.609375
vt 0.218750 0.609375
vt 0.343750 0.562500
vt 0.359375 0.562500
vt 0.375000 0.562500
vt 0.312500 0.562500
vt 0.328125 0.562500
vt 0.328125 0.609375
vt 0.312500 0.609375
vt 0.343750 0.609375
vt 0.484375 0.203125
vt 0.453125 0.234375
vt 0.468750 0.062500
vt 0.437500 0.078125
vt 0.437500 0.093750
vt 0.453125 0.062500
vt 0.609375 0.078125
vt 0.578125 0.109375
vt 0.718750 0.687500
vt 0.734375 0.687500
vt 0.750000 0.687500
vt 0.687500 0.687500
vt 0.703125 0.687500
vt 0.656250 0.687500
vt 0.671875 0.687500
vt 0.640625 0.687500
vt 0.531250 0.000000
vt 0.546875 0.000000
vt 0.562500 0.000000
vt 0.500000 0.015625
vt 0.500000 0.031250
vt 0.515625 0.000000
vt 0.578125 0.031250
vt 0.593750 0.031250
vt 0.406250 0.203125
vt 0.406250 0.218750
vt 0.406250 0.125000
vt 0.375000 0.140625
vt 0.375000 0.156250
vt 0.390625 0.125000
vt 0.375000 0.171875
vt 0.375000 0.187500
vt 0.281250 0.562500
vt 0.296875 0.562500
vt 0.265625 0.562500
vt 0.265625 0.609375
vt 0.250000 0.609375
vt 0.281250 0.609375
vt 0.156250 0.562500
vt 0.171875 0.562500
vt 0.125000 0.578125
vt 0.125000 0.593750
vt 0.125000 0.562500
vt 0.140625 0.562500
vt 0.140625 0.609375
vt 0.125000 0.609375
vt 0.156250 0.609375
vt 0.515625 0.578125
vt 0.515625 0.593750
vt 0.531250 0.593750
vt 0.406250 0.562500
vt 0.390625 0.562500
vt 0.375000 0.609375
vt 0.406250 0.515625
vt 0.406250 0.531250
vt 0.406250 0.500000
vt 0.453125 0.515625
vt 0.453125 0.531250
vt 0.468750 0.531250
vt 0.406250 0.640625
vt 0.437500 0.671875
vt 0.406250 0.328125
vt 0.406250 0.343750
vt 0.406250 0.312500
vt 0.406250 0.265625
vt 0.406250 0.281250
vt 0.406250 0.250000
vt 0.406250 0.453125
vt 0.406250 0.468750
vt 0.406250 0.437500
vt 0.406250 0.390625
vt 0.406250 0.406250
vt 0.406250 0.375000
vt 0.500000 0.734375
vt 0.546875 0.625000
vt 0.562500 0.625000
vt 0.578125 0.640625
vt 0.578125 0.656250
vt 0.593750 0.656250
vt 0.546875 0.140625
vt 0.515625 0.171875
vt 0.781250 0.687500
vt 0.796875 0.687500
vt 0.765625 0.687500
vt 0.609375 0.671875
vt 0.406250 0.421875
vt 0.406250 0.484375
vt 0.406250 0.296875
vt 0.406250 0.359375
vt 0.484375 0.546875
vt 0.406250 0.546875
vt 0.546875 0.609375
vt 0.171875 0.609375
vt 0.296875 0.609375
vt 0.406250 0.234375
vt 0.468750 0.046875
vt 0.484375 0.031250
vt 0.406250 0.109375
vt 0.421875 0.093750
vt 0.609375 0.031250
vt 0.625000 0.031250
vt 0.359375 0.609375
vt 0.234375 0.609375
vt 0.375000 0.000000
vt 0.625000 0.000000
vt 0.625000 0.250000
vt 0.375000 0.250000
vt 0.625000 0.500000
vt 0.375000 0.500000
vt 0.625000 0.750000
vt 0.375000 0.750000
vt 0.625000 1.000000
vt 0.375000 1.000000
vt 0.125000 0.500000
vt 0.125000 0.750000
vt 0.875000 0.500000
vt 0.875000 0.750000
s 0
usemtl Material
f 510/1/1 142/2/1 1/3/1 217/4/1
f 507/5/2 146/6/2 2/7/2 220/8/2
f 506/9/3 160/10/3 21/11/3 212/12/3
f 505/13/3 161/14/3 24/15/3 226/16/3
f 504/17/2 163/18/2 20/19/2 211/20/2
f 503/21/2 164/22/2 25/23/2 229/24/2
f 502/25/2 152/26/2 10/27/2 230/28/2
f 501/29/2 167/30/2 19/31/2 210/32/2
f 500/33/2 156/34/2 18/35/2 232/36/2
f 499/37/2 169/38/2 5/39/2 199/40/2
f 498/41/2 170/42/2 26/43/2 235/44/2
f 497/45/2 155/46/2 17/47/2 236/48/2
f 493/49/1 179/50/1 14/51/1 206/52/1
f 492/53/1 180/54/1 29/55/1 245/56/1
f 490/57/1 153/58/1 12/59/1 248/60/1
f 489/61/4 185/62/4 11/63/4 203/64/4
f 488/65/4 186/66/4 30/67/4 251/68/4
f 487/69/4 187/70/4 3/71/4 198/72/4
f 486/73/4 188/74/4 31/75/4 254/76/4
f 485/77/1 189/78/1 9/79/1 202/80/1
f 484/81/1 190/82/1 32/83/1 257/84/1
f 482/85/3 193/86/3 4/87/3 150/88/3
f 481/89/3 194/90/3 33/91/3 261/92/3
f 480/93/5 265/94/5 103/95/5 266/96/5
f 479/97/5 262/98/5 100/99/5 267/100/5
f 478/101/3 268/102/3 99/103/3 195/104/3
f 477/105/3 269/106/3 104/107/3 270/108/3
f 476/109/3 260/110/3 98/111/3 271/112/3
f 475/113/3 272/114/3 51/115/3 214/116/3
f 474/117/3 273/118/3 105/119/3 274/120/3
f 473/121/3 259/122/3 97/123/3 275/124/3
f 471/125/2 276/126/2 106/127/2 277/128/2
f 469/129/1 278/130/1 96/131/1 192/132/1
f 467/133/1 280/134/1 95/135/1 191/136/1
f 466/137/1 281/138/1 108/139/1 282/140/1
f 465/141/1 256/142/1 94/143/1 283/144/1
f 464/145/1 284/146/1 39/147/1 140/148/1
f 463/149/1 285/150/1 109/151/1 286/152/1
f 462/153/1 255/154/1 93/155/1 287/156/1
f 461/157/4 253/158/4 91/159/4 290/160/4
f 460/161/4 252/162/4 90/163/4 293/164/4
f 459/165/4 250/166/4 88/167/4 296/168/4
f 458/169/4 249/170/4 87/171/4 299/172/4
f 457/173/1 300/174/1 86/175/1 184/176/1
f 456/177/1 301/178/1 114/179/1 302/180/1
f 455/181/1 216/182/1 54/183/1 303/184/1
f 454/185/1 247/186/1 85/187/1 305/188/1
f 453/189/1 306/190/1 84/191/1 182/192/1
f 451/193/1 244/194/1 82/195/1 310/196/1
f 450/197/1 311/198/1 43/199/1 143/200/1
f 449/201/1 312/202/1 117/203/1 313/204/1
f 448/205/1 243/206/1 81/207/1 314/208/1
f 447/209/1 315/210/1 44/211/1 144/212/1
f 444/213/6 318/214/6 119/215/6 319/216/6
f 443/217/6 240/218/6 78/219/6 320/220/6
f 441/221/6 322/222/6 120/223/6 323/224/6
f 440/225/6 237/226/6 75/227/6 324/228/6
f 439/229/2 325/230/2 74/231/2 172/232/2
f 438/233/2 326/234/2 121/235/2 327/236/2
f 437/237/2 218/238/2 56/239/2 328/240/2
f 436/241/2 329/242/2 73/243/2 171/244/2
f 435/245/2 330/246/2 122/247/2 331/248/2
f 434/249/2 234/250/2 72/251/2 332/252/2
f 433/253/2 233/254/2 71/255/2 335/256/2
f 432/257/2 340/258/2 68/259/2 166/260/2
f 431/261/2 343/262/2 67/263/2 165/264/2
f 430/265/2 344/266/2 125/267/2 345/268/2
f 429/269/2 228/270/2 66/271/2 346/272/2
f 428/273/2 347/274/2 48/275/2 148/276/2
f 427/277/2 348/278/2 126/279/2 349/280/2
f 426/281/2 227/282/2 65/283/2 350/284/2
f 425/285/3 351/286/3 64/287/3 162/288/3
f 424/289/3 352/290/3 127/291/3 353/292/3
f 423/293/3 225/294/3 63/295/3 354/296/3
f 422/297/3 355/298/3 49/299/3 149/300/3
f 421/301/3 356/302/3 128/303/3 357/304/3
f 420/305/3 224/306/3 62/307/3 358/308/3
f 419/309/5 359/310/5 129/311/5 360/312/5
f 418/313/5 221/314/5 59/315/5 361/316/5
f 417/317/5 362/318/5 130/319/5 363/320/5
f 416/321/5 213/322/5 50/323/5 364/324/5
f 414/325/2 365/326/2 131/327/2 366/328/2
f 412/329/2 367/330/2 58/331/2 157/332/2
f 411/333/2 368/334/2 132/335/2 369/336/2
f 410/337/2 209/338/2 46/339/2 370/340/2
f 408/341/2 371/342/2 133/343/2 372/344/2
f 405/345/6 374/346/6 134/347/6 375/348/6
f 404/349/6 151/350/6 52/351/6 376/352/6
f 402/353/6 378/354/6 135/355/6 379/356/6
f 401/357/6 208/358/6 45/359/6 380/360/6
f 400/361/1 381/362/1 55/363/1 154/364/1
f 399/365/1 382/366/1 136/367/1 383/368/1
f 398/369/1 205/370/1 42/371/1 384/372/1
f 397/373/1 204/374/1 41/375/1 386/376/1
f 396/377/1 387/378/1 137/379/1 388/380/1
f 395/381/1 200/382/1 37/383/1 389/384/1
f 394/385/5 390/386/5 138/387/5 391/388/5
f 393/389/5 152/390/5 53/391/5 392/392/5
f 390/386/5 393/389/5 392/392/5 138/387/5
f 102/393/5 264/394/5 393/389/5 390/386/5
f 264/394/5 10/395/5 152/390/5 393/389/5
f 262/98/5 394/385/5 391/388/5 100/99/5
f 34/396/5 197/397/5 394/385/5 262/98/5
f 197/397/5 102/393/5 390/386/5 394/385/5
f 387/378/1 395/381/1 389/384/1 137/379/1
f 96/131/1 258/398/1 395/381/1 387/378/1
f 258/398/1 6/399/1 200/382/1 395/381/1
f 255/154/1 396/377/1 388/380/1 93/155/1
f 32/83/1 192/132/1 396/377/1 255/154/1
f 192/132/1 96/131/1 387/378/1 396/377/1
f 86/175/1 248/60/1 397/373/1 385/400/1
f 248/60/1 12/59/1 204/374/1 397/373/1
f 382/366/1 398/369/1 384/372/1 136/367/1
f 84/191/1 246/401/1 398/369/1 382/366/1
f 246/401/1 13/402/1 205/370/1 398/369/1
f 243/206/1 399/365/1 383/368/1 81/207/1
f 29/55/1 182/192/1 399/365/1 243/206/1
f 182/192/1 84/191/1 382/366/1 399/365/1
f 179/50/1 400/361/1 154/364/1 14/51/1
f 81/207/1 383/368/1 400/361/1 179/50/1
f 383/368/1 136/367/1 381/362/1 400/361/1
f 378/354/6 401/357/6 380/360/6 135/355/6
f 80/403/6 242/404/6 401/357/6 378/354/6
f 242/404/6 16/405/6 208/358/6 401/357/6
f 240/218/6 402/353/6 379/356/6 78/219/6
f 28/406/6 178/407/6 402/353/6 240/218/6
f 178/407/6 80/403/6 378/354/6 402/353/6
f 78/219/6 379/356/6 403/408/6 176/409/6
f 379/356/6 135/355/6 377/410/6 403/408/6
f 374/346/6 404/349/6 376/352/6 134/347/6
f 77/411/6 239/412/6 404/349/6 374/346/6
f 239/412/6 7/413/6 151/350/6 404/349/6
f 237/226/6 405/345/6 375/348/6 75/227/6
f 27/414/6 175/415/6 405/345/6 237/226/6
f 175/415/6 77/411/6 374/346/6 405/345/6
f 75/227/6 375/348/6 406/416/6 173/417/6
f 375/348/6 134/347/6 373/418/6 406/416/6
f 74/231/2 236/48/2 407/419/2 371/342/2
f 233/254/2 408/341/2 372/344/2 71/255/2
f 26/43/2 172/232/2 408/341/2 233/254/2
f 172/232/2 74/231/2 371/342/2 408/341/2
f 71/255/2 372/344/2 409/420/2 169/38/2
f 368/334/2 410/337/2 370/340/2 132/335/2
f 70/421/2 232/36/2 410/337/2 368/334/2
f 232/36/2 18/35/2 209/338/2 410/337/2
f 231/422/2 411/333/2 369/336/2 69/423/2
f 168/424/2 70/421/2 368/334/2 411/333/2
f 167/30/2 412/329/2 157/332/2 19/31/2
f 69/423/2 369/336/2 412/329/2 167/30/2
f 369/336/2 132/335/2 367/330/2 412/329/2
f 68/259/2 230/28/2 413/425/2 365/326/2
f 227/282/2 414/325/2 366/328/2 65/283/2
f 25/23/2 166/260/2 414/325/2 227/282/2
f 166/260/2 68/259/2 365/326/2 414/325/2
f 65/283/2 366/328/2 415/426/2 163/18/2
f 362/318/5 416/321/5 364/324/5 130/319/5
f 61/427/5 223/428/5 416/321/5 362/318/5
f 223/428/5 22/429/5 213/322/5 416/321/5
f 221/314/5 417/317/5 363/320/5 59/315/5
f 23/430/5 159/431/5 417/317/5 221/314/5
f 159/431/5 61/427/5 362/318/5 417/317/5
f 359/310/5 418/313/5 361/316/5 129/311/5
f 60/432/5 222/433/5 418/313/5 359/310/5
f 222/433/5 23/430/5 221/314/5 418/313/5
f 200/382/5 419/309/5 360/312/5 37/383/5
f 6/399/5 158/434/5 419/309/5 200/382/5
f 158/434/5 60/432/5 359/310/5 419/309/5
f 356/302/3 420/305/3 358/308/3 128/303/3
f 64/287/3 226/16/3 420/305/3 356/302/3
f 226/16/3 24/15/3 224/306/3 420/305/3
f 162/288/3 64/287/3 356/302/3 421/301/3
f 357/304/3 128/303/3 355/298/3 422/297/3
f 352/290/3 423/293/3 354/296/3 127/291/3
f 39/147/3 202/80/3 423/293/3 352/290/3
f 202/80/3 9/79/3 225/294/3 423/293/3
f 140/148/3 39/147/3 352/290/3 424/289/3
f 353/292/3 127/291/3 351/286/3 425/285/3
f 348/278/2 426/281/2 350/284/2 126/279/2
f 67/263/2 229/24/2 426/281/2 348/278/2
f 229/24/2 25/23/2 227/282/2 426/281/2
f 209/338/2 427/277/2 349/280/2 46/339/2
f 18/35/2 165/264/2 427/277/2 209/338/2
f 165/264/2 67/263/2 348/278/2 427/277/2
f 146/6/2 428/273/2 148/276/2 2/7/2
f 46/339/2 349/280/2 428/273/2 146/6/2
f 349/280/2 126/279/2 347/274/2 428/273/2
f 344/266/2 429/269/2 346/272/2 125/267/2
f 51/435/2 150/436/2 429/269/2 344/266/2
f 150/436/2 4/437/2 228/270/2 429/269/2
f 219/438/2 430/265/2 345/268/2 57/439/2
f 214/440/2 51/435/2 344/266/2 430/265/2
f 156/34/2 431/261/2 165/264/2 18/35/2
f 57/439/2 345/268/2 431/261/2 156/34/2
f 345/268/2 125/267/2 343/262/2 431/261/2
f 164/22/2 432/257/2 166/260/2 25/23/2
f 66/271/2 341/441/2 432/257/2 164/22/2
f 341/441/2 124/442/2 340/258/2 432/257/2
f 334/443/2 433/253/2 335/256/2 123/444/2
f 73/243/2 235/44/2 433/253/2 334/443/2
f 235/44/2 26/43/2 233/254/2 433/253/2
f 330/246/2 434/249/2 332/252/2 122/247/2
f 47/445/2 210/32/2 434/249/2 330/246/2
f 210/32/2 19/31/2 234/250/2 434/249/2
f 139/446/2 435/245/2 331/248/2 38/447/2
f 147/448/2 47/445/2 330/246/2 435/245/2
f 201/449/2 436/241/2 171/244/2 8/450/2
f 38/447/2 331/248/2 436/241/2 201/449/2
f 331/248/2 122/247/2 329/242/2 436/241/2
f 326/234/2 437/237/2 328/240/2 121/235/2
f 58/331/2 220/8/2 437/237/2 326/234/2
f 220/8/2 2/7/2 218/238/2 437/237/2
f 234/250/2 438/233/2 327/236/2 72/251/2
f 19/31/2 157/332/2 438/233/2 234/250/2
f 157/332/2 58/331/2 326/234/2 438/233/2
f 170/42/2 439/229/2 172/232/2 26/43/2
f 72/251/2 327/236/2 439/229/2 170/42/2
f 327/236/2 121/235/2 325/230/2 439/229/2
f 322/222/6 440/225/6 324/228/6 120/223/6
f 76/451/6 238/452/6 440/225/6 322/222/6
f 238/452/6 27/414/6 237/226/6 440/225/6
f 208/358/6 441/221/6 323/224/6 45/359/6
f 16/405/6 174/453/6 441/221/6 208/358/6
f 174/453/6 76/451/6 322/222/6 441/221/6
f 45/359/6 323/224/6 442/454/6 145/455/6
f 323/224/6 120/223/6 321/456/6 442/454/6
f 318/214/6 443/217/6 320/220/6 119/215/6
f 79/457/6 241/458/6 443/217/6 318/214/6
f 241/458/6 28/406/6 240/218/6 443/217/6
f 201/459/6 444/213/6 319/216/6 38/460/6
f 8/461/6 177/462/6 444/213/6 201/459/6
f 177/462/6 79/457/6 318/214/6 444/213/6
f 38/460/6 319/216/6 445/463/6 139/464/6
f 319/216/6 119/215/6 317/465/6 445/463/6
f 205/370/1 446/466/1 316/467/1 42/371/1
f 142/2/1 447/209/1 144/212/1 1/3/1
f 42/371/1 316/467/1 447/209/1 142/2/1
f 316/467/1 118/468/1 315/210/1 447/209/1
f 312/202/1 448/205/1 314/208/1 117/203/1
f 83/469/1 245/56/1 448/205/1 312/202/1
f 245/56/1 29/55/1 243/206/1 448/205/1
f 151/350/1 449/201/1 313/204/1 52/351/1
f 7/413/1 181/470/1 449/201/1 151/350/1
f 181/470/1 83/469/1 312/202/1 449/201/1
f 52/351/1 313/204/1 450/197/1 215/471/1
f 313/204/1 117/203/1 311/198/1 450/197/1
f 309/472/1 451/193/1 310/196/1 116/473/1
f 35/474/1 198/72/1 451/193/1 309/472/1
f 198/72/1 3/71/1 244/194/1 451/193/1
f 244/194/1 452/475/1 307/476/1 82/195/1
f 180/54/1 453/189/1 182/192/1 29/55/1
f 82/195/1 307/476/1 453/189/1 180/54/1
f 307/476/1 115/477/1 306/190/1 453/189/1
f 43/199/1 206/52/1 454/185/1 304/478/1
f 206/52/1 14/51/1 247/186/1 454/185/1
f 301/178/1 455/181/1 303/184/1 114/179/1
f 55/363/1 217/4/1 455/181/1 301/178/1
f 217/4/1 1/3/1 216/182/1 455/181/1
f 247/186/1 456/177/1 302/180/1 85/187/1
f 14/51/1 154/364/1 456/177/1 247/186/1
f 154/364/1 55/363/1 301/178/1 456/177/1
f 85/187/1 302/180/1 457/173/1 183/479/1
f 302/180/1 114/179/1 300/174/1 457/173/1
f 298/480/4 458/169/4 299/172/4 113/481/4
f 89/482/4 251/68/4 458/169/4 298/480/4
f 251/68/4 30/67/4 249/170/4 458/169/4
f 295/483/4 459/165/4 296/168/4 112/484/4
f 36/485/4 199/40/4 459/165/4 295/483/4
f 199/40/4 5/39/4 250/166/4 459/165/4
f 292/486/4 460/161/4 293/164/4 111/487/4
f 92/488/4 254/76/4 460/161/4 292/486/4
f 254/76/4 31/75/4 252/162/4 460/161/4
f 289/489/4 461/157/4 290/160/4 110/490/4
f 40/491/4 203/64/4 461/157/4 289/489/4
f 203/64/4 11/63/4 253/158/4 461/157/4
f 285/150/1 462/153/1 287/156/1 109/151/1
f 95/135/1 257/84/1 462/153/1 285/150/1
f 257/84/1 32/83/1 255/154/1 462/153/1
f 204/374/1 463/149/1 286/152/1 41/375/1
f 12/59/1 191/136/1 463/149/1 204/374/1
f 191/136/1 95/135/1 285/150/1 463/149/1
f 41/375/1 286/152/1 464/145/1 141/492/1
f 286/152/1 109/151/1 284/146/1 464/145/1
f 281/138/1 465/141/1 283/144/1 108/139/1
f 44/211/1 207/493/1 465/141/1 281/138/1
f 207/493/1 15/494/1 256/142/1 465/141/1
f 216/182/1 466/137/1 282/140/1 54/183/1
f 1/3/1 144/212/1 466/137/1 216/182/1
f 144/212/1 44/211/1 281/138/1 466/137/1
f 153/58/1 467/133/1 191/136/1 12/59/1
f 54/183/1 282/140/1 467/133/1 153/58/1
f 282/140/1 108/139/1 280/134/1 467/133/1
f 256/142/1 468/495/1 279/496/1 94/143/1
f 190/82/1 469/129/1 192/132/1 32/83/1
f 94/143/1 279/496/1 469/129/1 190/82/1
f 279/496/1 107/497/1 278/130/1 469/129/1
f 48/275/2 211/20/2 470/498/2 276/126/2
f 218/238/2 471/125/2 277/128/2 56/239/2
f 2/7/2 148/276/2 471/125/2 218/238/2
f 148/276/2 48/275/2 276/126/2 471/125/2
f 56/239/2 277/128/2 472/499/2 155/46/2
f 273/118/3 473/121/3 275/124/3 105/119/3
f 99/103/3 261/92/3 473/121/3 273/118/3
f 261/92/3 33/91/3 259/122/3 473/121/3
f 195/104/3 99/103/3 273/118/3 474/117/3
f 274/120/3 105/119/3 272/114/3 475/113/3
f 269/106/3 476/109/3 271/112/3 104/107/3
f 49/299/3 212/12/3 476/109/3 269/106/3
f 212/12/3 21/11/3 260/110/3 476/109/3
f 149/300/3 49/299/3 269/106/3 477/105/3
f 270/108/3 104/107/3 268/102/3 478/101/3
f 265/94/5 479/97/5 267/100/5 103/95/5
f 101/500/5 263/501/5 479/97/5 265/94/5
f 263/501/5 34/396/5 262/98/5 479/97/5
f 213/322/5 480/93/5 266/96/5 50/323/5
f 22/429/5 196/502/5 480/93/5 213/322/5
f 196/502/5 101/500/5 265/94/5 480/93/5
f 268/102/3 481/89/3 261/92/3 99/103/3
f 104/107/3 271/112/3 481/89/3 268/102/3
f 271/112/3 98/111/3 194/90/3 481/89/3
f 272/114/3 482/85/3 150/88/3 51/115/3
f 105/119/3 275/124/3 482/85/3 272/114/3
f 275/124/3 97/123/3 193/86/3 482/85/3
f 278/130/1 483/503/1 258/398/1 96/131/1
f 280/134/1 484/81/1 257/84/1 95/135/1
f 108/139/1 283/144/1 484/81/1 280/134/1
f 283/144/1 94/143/1 190/82/1 484/81/1
f 284/146/1 485/77/1 202/80/1 39/147/1
f 109/151/1 287/156/1 485/77/1 284/146/1
f 287/156/1 93/155/1 189/78/1 485/77/1
f 288/504/4 486/73/4 254/76/4 92/488/4
f 110/490/4 290/160/4 486/73/4 288/504/4
f 290/160/4 91/159/4 188/74/4 486/73/4
f 291/505/4 487/69/4 198/72/4 35/474/4
f 111/487/4 293/164/4 487/69/4 291/505/4
f 293/164/4 90/163/4 187/70/4 487/69/4
f 294/506/4 488/65/4 251/68/4 89/482/4
f 112/484/4 296/168/4 488/65/4 294/506/4
f 296/168/4 88/167/4 186/66/4 488/65/4
f 297/507/4 489/61/4 203/64/4 40/491/4
f 113/481/4 299/172/4 489/61/4 297/507/4
f 299/172/4 87/171/4 185/62/4 489/61/4
f 300/174/1 490/57/1 248/60/1 86/175/1
f 114/179/1 303/184/1 490/57/1 300/174/1
f 303/184/1 54/183/1 153/58/1 490/57/1
f 306/190/1 491/508/1 246/401/1 84/191/1
f 308/509/1 492/53/1 245/56/1 83/469/1
f 116/473/1 310/196/1 492/53/1 308/509/1
f 310/196/1 82/195/1 180/54/1 492/53/1
f 311/198/1 493/49/1 206/52/1 43/199/1
f 117/203/1 314/208/1 493/49/1 311/198/1
f 314/208/1 81/207/1 179/50/1 493/49/1
f 315/210/1 494/510/1 207/493/1 44/211/1
f 119/215/6 320/220/6 495/511/6 317/465/6
f 320/220/6 78/219/6 176/409/6 495/511/6
f 120/223/6 324/228/6 496/512/6 321/456/6
f 324/228/6 75/227/6 173/417/6 496/512/6
f 325/230/2 497/45/2 236/48/2 74/231/2
f 121/235/2 328/240/2 497/45/2 325/230/2
f 328/240/2 56/239/2 155/46/2 497/45/2
f 329/242/2 498/41/2 235/44/2 73/243/2
f 122/247/2 332/252/2 498/41/2 329/242/2
f 332/252/2 72/251/2 170/42/2 498/41/2
f 333/513/2 499/37/2 199/40/2 36/485/2
f 123/444/2 335/256/2 499/37/2 333/513/2
f 335/256/2 71/255/2 169/38/2 499/37/2
f 336/514/2 500/33/2 232/36/2 70/421/2
f 337/515/2 57/439/2 156/34/2 500/33/2
f 338/516/2 501/29/2 210/32/2 47/445/2
f 339/517/2 69/423/2 167/30/2 501/29/2
f 340/258/2 502/25/2 230/28/2 68/259/2
f 124/442/2 342/518/2 502/25/2 340/258/2
f 342/518/2 53/519/2 152/26/2 502/25/2
f 343/262/2 503/21/2 229/24/2 67/263/2
f 125/267/2 346/272/2 503/21/2 343/262/2
f 346/272/2 66/271/2 164/22/2 503/21/2
f 347/274/2 504/17/2 211/20/2 48/275/2
f 126/279/2 350/284/2 504/17/2 347/274/2
f 350/284/2 65/283/2 163/18/2 504/17/2
f 351/286/3 505/13/3 226/16/3 64/287/3
f 127/291/3 354/296/3 505/13/3 351/286/3
f 354/296/3 63/295/3 161/14/3 505/13/3
f 355/298/3 506/9/3 212/12/3 49/299/3
f 128/303/3 358/308/3 506/9/3 355/298/3
f 358/308/3 62/307/3 160/10/3 506/9/3
f 367/330/2 507/5/2 220/8/2 58/331/2
f 132/335/2 370/340/2 507/5/2 367/330/2
f 370/340/2 46/339/2 146/6/2 507/5/2
f 134/347/6 376/352/6 508/520/6 373/418/6
f 376/352/6 52/351/6 215/471/6 508/520/6
f 135/355/6 380/360/6 509/521/6 377/410/6
f 380/360/6 45/359/6 145/455/6 509/521/6
f 381/362/1 510/1/1 217/4/1 55/363/1
f 136/367/1 384/372/1 510/1/1 381/362/1
f 384/372/1 42/371/1 142/2/1 510/1/1
usemtl 
f 511/522/2 512/523/2 514/524/2 513/525/2
f 513/525/7 514/524/7 518/526/7 517/527/7
f 517/527/1 518/526/1 516/528/1 515/529/1
f 515/529/8 516/528/8 512/530/8 511/531/8
f 513/532/9 517/527/9 515/529/9 511/533/9
f 518/526/10 514/534/10 512/535/10 516/528/10
f 519/522/2 520/523/2 522/524/2 521/525/2
f 521/525/4 522/524/4 526/526/4 525/527/4
f 525/527/1 526/526/1 524/528/1 523/529/1
f 523/529/3 524/528/3 520/530/3 519/531/3
f 521/532/6 525/527/6 523/529/6 519/533/6
f 526/526/5 522/534/5 520/535/5 524/528/5
f 527/522/2 528/523/2 530/524/2 529/525/2
f 529/525/4 530/524/4 534/526/4 533/527/4
f 533/527/1 534/526/1 532/528/1 531/529/1
f 531/529/3 532/528/3 528/530/3 527/531/3
f 529/532/6 533/527/6 531/529/6 527/533/6
f 534/526/5 530/534/5 528/535/5 532/528/5
f 535/522/2 536/523/2 538/524/2 537/525/2
f 537/525/6 538/524/6 542/526/6 541/527/6
f 541/527/1 542/526/1 540/528/1 539/529/1
f 539/529/5 540/528/5 536/530/5 535/531/5
f 537/532/3 541/527/3 539/529/3 535/533/3
f 542/526/4 538/534/4 536/535/4 540/528/4
f 543/522/2 544/523/2 546/524/2 545/525/2
f 545/525/6 546/524/6 550/526/6 549/527/6
f 549/527/1 550/526/1 548/528/1 547/529/1
f 547/529/5 548/528/5 544/530/5 543/531/5
f 545/532/3 549/527/3 547/529/3 543/533/3
f 550/526/4 546/534/4 544/535/4 548/528/4
f 551/522/2 552/523/2 554/524/2 553/525/2
f 553/525/7 554/524/7 558/526/7 557/527/7
f 557/527/1 558/526/1 556/528/1 555/529/1
f 555/529/8 556/528/8 552/530/8 551/531/8
f 553/532/9 557/527/9 555/529/9 551/533/9
f 558/526/10 554/534/10 552/535/10 556/528/10
o Cylinder
v 0.595940 0.374968 -2.416066
v 0.595940 0.374968 2.416066
v -0.598356 0.204363 -2.416066
v -0.598356 0.204363 2.416066
v -0.598356 0.545573 -2.416066
v -0.598356 0.545573 2.416066
vn 0.1414 -0.9900 -0.0000
vn -1.0000 -0.0000 -0.0000
vn -0.0000 -0.0000 1.0000
vn 0.1414 0.9900 -0.0000
vn -0.0000 -0.0000 -1.0000
vt 1.000000 0.500000
vt 1.000000 1.000000
vt 0.666667 1.000000
vt 0.666667 0.500000
vt 0.333333 1.000000
vt 0.333333 0.500000
vt 0.457846 0.130000
vt 0.250000 0.490000
vt 0.042154 0.130000
vt -0.000000 1.000000
vt -0.000000 0.500000
vt 0.750000 0.490000
vt 0.957846 0.130000
vt 0.542154 0.130000
s 0
f 559/536/11 560/537/11 562/538/11 561/539/11
f 561/539/12 562/538/12 564/540/12 563/541/12
f 562/542/13 560/543/13 564/544/13
f 563/541/14 564/540/14 560/545/14 559/546/14
f 559/547/15 561/548/15 563/549/15
o Cube.001
v -0.594233 0.374968 2.413721
v -0.594233 0.203173 2.413721
v -0.594233 0.374968 -2.413721
v -0.594233 0.203173 -2.413721
v 0.594233 0.374968 2.413721
v 0.594233 0.203173 2.413721
v 0.594233 0.374968 -2.413721
v 0.594233 0.203173 -2.413721
vn -1.0000 -0.0000 -0.0000
vn -0.0000 -0.0000 -1.0000
vn 1.0000 -0.0000 -0.0000
vn -0.0000 -0.0000 1.0000
vn -0.0000 1.0000 -0.0000
vn -0.0000 -1.0000 -0.0000
vt 0.375000 0.000000
vt 0.625000 0.000000
vt 0.625000 0.250000
vt 0.375000 0.250000
vt 0.625000 0.500000
vt 0.375000 0.500000
vt 0.625000 0.750000
vt 0.375000 0.750000
vt 0.625000 1.000000
vt 0.375000 1.000000
vt 0.125000 0.500000
vt 0.125000 0.750000
vt 0.875000 0.500000
vt 0.875000 0.750000
s 0
f 565/550/16 567/553/16 568/552/16 566/551/16
f 567/553/17 571/555/17 572/554/17 568/552/17
f 571/555/18 569/557/18 570/556/18 572/554/18
f 569/557/19 565/559/19 566/558/19 570/556/19
f 567/560/20 565/561/20 569/557/20 571/555/20
f 572/554/21 570/556/21 566/563/21 568/562/21
o Cube.002
v -0.598356 0.590224 0.328517
v -0.598356 1.247257 0.328517
v -0.598356 0.590224 -0.328517
v -0.598356 1.247257 -0.328517
v -0.527789 0.590224 0.328517
v -0.527789 1.247257 0.328517
v -0.527789 0.590224 -0.328517
v -0.527789 1.247257 -0.328517
vn -1.0000 -0.0000 -0.0000
vn -0.0000 -0.0000 -1.0000
vn 1.0000 -0.0000 -0.0000
vn -0.0000 -0.0000 1.0000
vn -0.0000 -1.0000 -0.0000
vn -0.0000 1.0000 -0.0000
vt 0.375000 0.000000
vt 0.625000 0.000000
vt 0.625000 0.250000
vt 0.375000 0.250000
vt 0.625000 0.500000
vt 0.375000 0.500000
vt 0.625000 0.750000
vt 0.375000 0.750000
vt 0.625000 1.000000
vt 0.375000 1.000000
vt 0.125000 0.500000
vt 0.125000 0.750000
vt 0.875000 0.500000
vt 0.875000 0.750000
s 0
f 573/564/22 574/565/22 576/566/22 575/567/22
f 575/567/23 576/566/23 580/568/23 579/569/23
f 579/569/24 580/568/24 578/570/24 577/571/24
f 577/571/25 578/570/25 574/572/25 573/573/25
f 575/574/26 579/569/26 577/571/26 573/575/26
f 580/568/27 576/576/27 574/577/27 578/570/27
o Cube.003
v -0.598356 0.590224 1.631307
v -0.598356 1.247257 1.631307
v -0.598356 0.590224 0.618718
v -0.598356 1.247257 0.618718
v -0.527789 0.590224 1.631307
v -0.527789 1.247257 1.631307
v -0.527789 0.590224 0.618718
v -0.527789 1.247257 0.618718
vn -1.0000 -0.0000 -0.0000
vn -0.0000 -0.0000 -1.0000
vn 1.0000 -0.0000 -0.0000
vn -0.0000 -0.0000 1.0000
vn -0.0000 -1.0000 -0.0000
vn -0.0000 1.0000 -0.0000
vt 0.375000 0.000000
vt 0.625000 0.000000
vt 0.625000 0.250000
vt 0.375000 0.250000
vt 0.625000 0.500000
vt 0.375000 0.500000
vt 0.625000 0.750000
vt 0.375000 0.750000
vt 0.625000 1.000000
vt 0.375000 1.000000
vt 0.125000 0.500000
vt 0.125000 0.750000
vt 0.875000 0.500000
vt 0.875000 0.750000
s 0
f 581/578/28 582/579/28 584/580/28 583/581/28
f 583/581/29 584/580/29 588/582/29 587/583/29
f 587/583/30 588/582/30 586/584/30 585/585/30
f 585/585/31 586/584/31 582/586/31 581/587/31
f 583/588/32 587/583/32 585/585/32 581/589/32
f 588/582/33 584/590/33 582/591/33 586/584/33
o Cube.004
v -0.598356 0.590224 -0.613396
v -0.598356 1.247257 -0.613396
v -0.598356 0.590224 -1.625985
v -0.598356 1.247257 -1.625985
v -0.527789 0.590224 -0.613396
v -0.527789 1.247257 -0.613396
v -0.527789 0.590224 -1.625985
v -0.527789 1.247257 -1.625985
vn -1.0000 -0.0000 -0.0000
vn -0.0000 -0.0000 -1.0000
vn 1.0000 -0.0000 -0.0000
vn -0.0000 -0.0000 1.0000
vn -0.0000 -1.0000 -0.0000
vn -0.0000 1.0000 -0.0000
vt 0.375000 0.000000
vt 0.625000 0.000000
vt 0.625000 0.250000
vt 0.375000 0.250000
vt 0.625000 0.500000
vt 0.375000 0.500000
vt 0.625000 0.750000
vt 0.375000 0.750000
vt 0.625000 1.000000
vt 0.375000 1.000000
vt 0.125000 0.500000
vt 0.125000 0.750000
vt 0.875000 0.500000
vt 0.875000 0.750000
s 0
f 589/592/34 590/593/34 592/594/34 591/595/34
f 591/595/35 592/594/35 596/596/35 595/597/35
f 595/597/36 596/596/36 594/598/36 593/599/36
f 593/599/37 594/598/37 590/600/37 589/601/37
f 591/602/38 595/597/38 593/599/38 589/603/38
f 596/596/39 592/604/39 590/605/39 594/598/39
